<?xml version="1.0" encoding="UTF-8"?><svg id="Layer_2" xmlns="http://www.w3.org/2000/svg" width="362.22mm" height="340.05mm" xmlns:xlink="http://www.w3.org/1999/xlink" viewBox="0 0 1026.75 963.92"><defs><style>.cls-1{fill:url(#linear-gradient);}.cls-2{fill:none;stroke:#231f20;stroke-miterlimit:10;stroke-width:.75px;}.cls-3{fill:url(#linear-gradient-3);}.cls-4{fill:url(#linear-gradient-4);}.cls-5{fill:url(#linear-gradient-2);}.cls-6{fill:url(#linear-gradient-5);}</style><linearGradient id="linear-gradient" x1="490.07" y1="832.34" x2="490.07" y2="943.46" gradientUnits="userSpaceOnUse"><stop offset=".08" stop-color="#151616"/><stop offset=".19" stop-color="#3e3d3d"/><stop offset=".3" stop-color="#565656"/><stop offset=".31" stop-color="#595959"/><stop offset=".34" stop-color="#666"/><stop offset=".39" stop-color="#6d6d6d"/><stop offset=".5" stop-color="#707070"/><stop offset=".55" stop-color="#676767"/><stop offset=".64" stop-color="#515151"/><stop offset=".74" stop-color="#2d2d2d"/><stop offset=".82" stop-color="#0c0c0c"/><stop offset=".83" stop-color="#101010"/><stop offset=".86" stop-color="#363636"/><stop offset=".89" stop-color="#535353"/><stop offset=".92" stop-color="#696969"/><stop offset=".95" stop-color="#757575"/><stop offset=".98" stop-color="#7a7a7a"/></linearGradient><linearGradient id="linear-gradient-2" x1=".37" y1="24.53" x2="1026.38" y2="24.53" gradientUnits="userSpaceOnUse"><stop offset=".14" stop-color="#151616"/><stop offset=".26" stop-color="#3e3d3d"/><stop offset=".34" stop-color="#2c2c2c"/><stop offset=".49" stop-color="#0c0c0c"/><stop offset=".5" stop-color="#121212"/><stop offset=".56" stop-color="#2f2f2f"/><stop offset=".61" stop-color="#454545"/><stop offset=".66" stop-color="#515151"/><stop offset=".71" stop-color="#565656"/><stop offset=".74" stop-color="#636363"/><stop offset=".79" stop-color="#707070"/><stop offset=".85" stop-color="#777"/><stop offset=".98" stop-color="#7a7a7a"/></linearGradient><linearGradient id="linear-gradient-3" x1=".37" y1="796.56" x2="1026.38" y2="796.56" xlink:href="#linear-gradient-2"/><linearGradient id="linear-gradient-4" x1="-74.14" y1="920.38" x2="697.89" y2="920.38" gradientTransform="translate(-289.44 -533.99)" xlink:href="#linear-gradient-2"/><linearGradient id="linear-gradient-5" x1="-129.67" y1="228.53" x2="607.11" y2="228.53" gradientTransform="translate(765.6 175.48)" xlink:href="#linear-gradient-2"/></defs><g id="Layer_8"><image width="632" height="480" transform="translate(513.38 48.68) scale(.76 .81)" xlink:href="computer_ny1.png"/><image width="1290" height="1000" transform="translate(513.38 445.71) scale(.37 .34)" xlink:href="computer_ny2.png"/><image width="1232" height="1296" transform="translate(44.5 445.71) scale(.37 .26)" xlink:href="eksamen_billeder/computer_5.png"/><image width="576" height="402" transform="translate(44.5 48.68) scale(.79 .97)" xlink:href="computer_ny3.png"/><rect class="cls-2" x=".38" y=".38" width="1026" height="807.28" rx="54.61" ry="54.61"/><path class="cls-1" d="m400.34,807.81c-10.93-1.89,1.49,13.47-4.07,61.04-2.69,23.06-4.17,34.83-10.45,46.41-14.74,27.17-40.53,30.32-39.49,37.51,1.52,10.62,58.29,7.59,115,7.63,36.22.02,68.87,1.29,95.78,2.3,46.28,1.73,75.55,2.68,76.72-4.84.64-4.1-7.92-5.4-22.07-22.25-5.44-6.48-16.54-19.96-22.07-39.42-2.08-7.33-2.55-15.7-3.48-32.43-1.87-33.4.69-44.35-6.39-50.86-6.33-5.82-15.79-3.88-19.75-3.18-36.34,6.44-83.89,5.86-117.32,1.27-21.02-2.88-31.36-1.27-42.4-3.18Z"/><rect class="cls-5" x=".37" y=".37" width="1026" height="48.3"/><rect class="cls-3" x=".38" y="772.41" width="1026" height="48.3"/><rect class="cls-4" x="-363.58" y="364.33" width="772.03" height="44.12" transform="translate(408.83 363.95) rotate(90)"/><rect class="cls-6" x="635.93" y="381.96" width="736.78" height="44.12" transform="translate(600.3 1408.33) rotate(-90)"/></g></svg>