<?xml version="1.0" encoding="UTF-8"?><svg id="Layer_4" xmlns="http://www.w3.org/2000/svg" width="982.73" height="1404.48" xmlns:xlink="http://www.w3.org/1999/xlink" viewBox="0 0 982.73 1404.48"><defs><style>.cls-1{fill:url(#linear-gradient);}.cls-2,.cls-3{fill:#f8961d;}.cls-4{fill:#ce4a90;}.cls-5{fill:#761313;}.cls-6{fill:url(#radial-gradient);}.cls-7,.cls-8,.cls-9,.cls-10,.cls-11,.cls-12,.cls-13,.cls-14,.cls-3{isolation:isolate;}.cls-8{fill:#334ca0;}.cls-9{fill:#a73065;}.cls-10{fill:#ee6523;}.cls-11{fill:#fef9ed;}.cls-12{fill:#831f60;}.cls-13{fill:#ee2424;}.cls-14{fill:#faaf18;}</style><radialGradient id="radial-gradient" cx="491.36" cy="694.24" fx="491.36" fy="694.24" r="486.83" gradientUnits="userSpaceOnUse"><stop offset="0" stop-color="#efb341"/><stop offset=".15" stop-color="#efb341"/><stop offset=".3" stop-color="#f0a336"/><stop offset=".31" stop-color="#f1952d"/><stop offset=".32" stop-color="#f38825"/><stop offset=".33" stop-color="#f48121"/><stop offset=".36" stop-color="#f57f20"/><stop offset=".39" stop-color="#f48028"/><stop offset=".45" stop-color="#f2843e"/><stop offset=".53" stop-color="#ef8b62"/><stop offset=".56" stop-color="#ee8f75"/><stop offset=".57" stop-color="#eb9179"/><stop offset=".65" stop-color="#d4a59f"/><stop offset=".74" stop-color="#c2b5bc"/><stop offset=".83" stop-color="#b6c0d2"/><stop offset=".91" stop-color="#aec7de"/><stop offset=".99" stop-color="#accae3"/></radialGradient><linearGradient id="linear-gradient" x1="-8401.89" y1="-7123.85" x2="-8153.08" y2="-7123.85" gradientTransform="translate(1854.8 1839.14) scale(.16)" gradientUnits="userSpaceOnUse"><stop offset="0" stop-color="#f15a29"/><stop offset=".18" stop-color="#f15d29"/><stop offset=".31" stop-color="#f2662c"/><stop offset=".43" stop-color="#f47630"/><stop offset=".55" stop-color="#f78d36"/><stop offset=".65" stop-color="#faab3e"/><stop offset=".67" stop-color="#fbb040"/></linearGradient></defs><rect class="cls-6" x="62.34" y="155.78" width="858.05" height="1076.92"/><path class="cls-2" d="m380.91,601.62c-.71-1.87-2.76-3.01-3.84-3.61-3.69-2.04-6.18-.53-10.71-1.29-1.95-.33-2.3-.75-12.35-6.7-7.54-4.47-8.98-5.2-10.43-4.64-2.32.89-2.08,4.03-3.57,9.79-.73,2.81-.64,1.49-8.51,19.07-5.89,13.15-5.16,12.15-6.04,13.66-1.26,2.16-1.66,3.33-2.47,5.67-.81,2.33-1.2,3.51-.82,4.12,1.3,2.11,6.66-.77,12.9,1.8,2.19.9,2.02,1.46,4.12,2.06,3.55,1.02,5.28-.21,8.51.77,2.26.69,1.99,1.48,4.67,2.83,3.87,1.96,9.67,2.98,11.26,1.03,1.12-1.38-.64-3.27-1.37-6.96-.95-4.76.6-8.64,2.2-12.63,5.71-14.29,18.62-19.33,16.47-25Z"/><path class="cls-3" d="m545.65,536.2c-.4-2.7.49-5.37,1.49-8.37,1.43-4.32,2.66-4.75,4.83-9.77,1.7-3.92.84-3.42,3.34-10.46,2.33-6.58,2.87-6.44,3.72-10.12.93-4.03.53-5.28,1.86-6.28,2.18-1.63,4.36.9,10.78.7,4.55-.14,6.09-1.49,10.4-.7,1.54.28,3.36.83,4.09,1.05,3.9,1.16,3.93,1.66,5.95,2.09,3.73.8,4.18-.77,8.18,0,2.14.41,1.9.84,5.57,1.74,1.96.48,4.83,1.05,4.83,1.05h0s3.12.37,4.09,1.4c1.62,1.71-1.5,6.6-2.6,8.37-3.61,5.79-6.03,12.17-9.29,18.14-5.12,9.38-7.02,13.22-8.18,18.84-.59,2.85-.25,2.59-.74,4.19-.9,2.89-2.57,5.54-14.12,15.7-1.93,1.7-2.28,1.97-2.97,2.09-4.41.78-6.89-7.2-15.61-15.35-8.49-7.93-14.74-8.39-15.61-14.3Z"/><path class="cls-8" d="m432.7,536.41c22.91-7.35,38.56,13.94,57.81,4.62,9.03-4.37,11.52-11.92,22.14-12.7,4.56-.33,8.76,1.04,17.16,3.79,11.47,3.75,13.24,6.68,23.22,8.53,3.65.67,5.15.6,7.57,1.9,5.38,2.87,6.23,7.6,9.59,12.32,4.54,6.37,10.36,8.08,15.14,10.9,19.98,11.74,25.9,44.88,26.25,63.01.15,8.11-.8,13.82-2.52,24.16-3.8,22.76-11.03,41.85-12.62,45.95-7.2,18.67-11.9,23.94-10.6,35.53.72,6.4,2.9,11.41,5.55,17.53,4.72,10.87,8.43,19.43,16.66,27,2.59,2.39,6.22,5.22,8.08,10.42.66,1.85,1.11,4.04,1.01,9.48-.1,5.35-.21,10.98-2.02,17.53-3.14,11.37-9.62,19.04-13.63,23.69-9.22,10.69-18.86,16.37-28.26,21.79-18.28,10.55-34.3,14.99-45.42,18-14.4,3.9-22.95,6.21-35.33,6.16-15.98-.06-28.14-4.02-37.35-7.11-11.2-3.75-18.66-7.76-33.31-15.63-18.68-10.04-14.08-9.88-26.25-15.63-3.98-1.88-6.85-3.03-9.08-6.16-2.5-3.51-2.26-6.8-2.02-20.37.15-8.6.22-12.93,0-14.69-1.11-8.68-3.82-11.24-5.55-18.48-2.07-8.67.43-10.79.5-22.27.08-11.85-2.56-13.48-7.07-37.9-1.92-10.39-2.88-15.59-3.53-22.74-1.73-18.92.67-25.95-3.53-41.22-1.95-7.08-2.63-6.17-4.04-12.32-.89-3.88-4.04-18.33.5-32.69,2.11-6.66,3.99-7.36,19.18-27,16.79-21.72,16.15-23,24.73-32.22,12.85-13.8,19.28-20.69,27.05-23.19Z"/><path class="cls-11" d="m426.56,577.47c-9.31,1.62-11.2,11.97-23.68,35.23-11.66,21.74-17.59,26.85-19.63,41.74-.21,1.55-.04.71-.58,15.18,0,0-.7,18.89-1.73,38.48-1.77,33.59-2.62,33.31-1.15,37.94,2.03,6.43,7.51,19.19,13.86,28.73,1.26,1.9,4.96,7.27,6.93,15.18.84,3.38,1.02,5.81,1.15,7.05,1.18,10.69,9.54,23.76,19.06,30.9,6.1,4.58,14.93,6.19,32.34,9.21,25.75,4.48,40,6.96,58.32,4.34,12.76-1.83,27.43-6.12,30.61-7.05,6.69-1.96,10.04-2.94,11.55-3.79,5.32-3.02,12.01-9.46,18.48-43.9,2.3-12.26,4.03-21.48,4.62-34.69.74-16.57-1.2-19.82-.58-40.65.45-15.1,1.5-14.44,1.73-28.19.15-8.71.31-21.84-2.31-38.48-1.9-12.07-3.36-21.33-8.66-33.06-5.37-11.87-11.37-18.97-17.32-26.02-10.46-12.38-15.38-13.78-18.48-14.09-4.84-.49-9.95,1.22-14.44,2.71-5.77,1.92-5.3,2.8-11.55,4.88-1.48.49-7.17,2.33-15.01,3.25-.8.09-3.67.42-8.08.54-4.79.13-10.16,0-20.21-1.08-6.51-.7-7.54-.99-20.79-2.71-9.08-1.18-13.64-1.77-14.44-1.63Z"/><path class="cls-10" d="m569.27,630.95c-2.52-1.85-5.52-.63-15.26-1.05-3.01-.13-.62-.16-4.84-.52-2.27-.2-3.2-.21-3.72-.87-.56-.71-.17-1.57.19-3.32.22-1.1,1.19-5.89-.19-6.64-.67-.37-1.57.39-3.91,1.75-2.02,1.17-4.93,2.86-7.82,3.67-.95.27-3.31.36-8,.52-3.4.12-5.1.18-7.44.17-5.35-.02-8.03-.03-9.12-.52-5.12-2.33-5.58-9.52-7.26-9.26-.77.12-.53,1.6-2.23,4.54-.92,1.59-2.11,3.6-4.28,4.37-1.14.4-1.93.25-3.35.17-1.47-.07-4.66.42-10.98,1.4-4.05.63-4.21.7-6.7,1.05-4.6.64-6.92.95-8,.52-3.91-1.52-4.17-6.57-6.33-6.46-1.55.08-1.53,2.68-4.09,3.67-1.72.66-3.04-.01-5.96-.52-2-.35-4.07-.35-8.19-.35-9.55,0-12.01,2.15-14.7.17-2.29-1.68-1.88-4.23-3.72-4.54-2.09-.35-2.71,2.92-6.33,4.37-4.69,1.88-8.59-1.66-11.91.7-1.23.87-1.67,2.04-2.05,2.97-3.89,9.67-14.81,19.31-18.25,22.32-.2.18-1.26,2.08-1.57,5.19-.31,3.14-.3,7.21-.32,7.84-.05,1.56.31-.06.42.27.03.09-1.39,7.67-1.53,13.7-.2,8.1-.23,16.8-.66,20.33-2.36,19.59-.41,22.07-.37,22.5.3,3.24-2.25,12.82-1.83,21.96.09,2.03.42,3.51,1.34,6.22,0,0,.99,4.76,3.83,9.79.24.43-.32-.93-.07-.59,1.92,2.57,2.1-7.9-.15-1.04-.62,1.9,5.64,12.19,6.4,14.07,1.01,2.48-1.29-6.41,0,0,.2.99,0,0,0,0,1.34-1.42,1.95-3.04,4.96-4.07,2.18-.75,4.43-2.24,6.03-2.12.51.04,3.12,2.26,4.38,3.79,1.6,1.94,2.51,3.67,3.2,6.22,2.01,7.39,2.46,5.6,4.27,12.83,1.16,4.61,1.73,6.92,1.92,9.82.45,6.93-1.29,10.53,1.07,12.43.98.79,1.72.53,5.13.8,2.38.19,6.57,1.13,14.95,3.01,3.34.75,5.78,1.34,8.54,2.01,8.4,2.03,12.6,3.04,13.46,3.41,10.46,4.42,13.24,17.06,14.95,16.44,1.68-.6-2.61-12.07,1.07-14.04.86-.46,1.78-.2,2.78,0,4.12.83,6.24-.08,14.1-1.2,12.77-1.82,20.56-2.94,22.64.2,1.24,1.88,1.07,6.22,1.07,6.22,0,0,.91,1.97,1.71,2.01.71.03,1.28-1.47,2.14-3.61,1.53-3.82,2.31-5.74,2.78-6.22,1.12-1.14,2.75-1.46,9.4-1.2,9.93.39,12.7,1.34,14.74-.4,1.55-1.33.71-2.54,1.71-6.22,2.23-8.18,8.26-9.07,10.47-17.44.58-2.21,1.11-4.2.43-6.62-1.21-4.3-4.85-5-6.19-9.02-.85-2.54-.77-6.38,1.28-8.82,4.77-5.68,16.84.23,21.36-5.01,1.48-1.72,3.1-9.36,3.38-15.48.06-1.34-.05-2.46-.08-3.67-.01-.49-.02-.99-.04-1.54-.04-1.13-.04-1.12-.04-1.13,0-1.96.02-1.08-.2-4.15-.09-1.19-.17-2.91-.3-5.4-.64-11.93.47-15.78,2.16-30.45,1.85-16.08.39-29.68-1.22-37.39-1.08-5.21-1.61-17.22-1.61-17.22-1.57-5.89-2.7-1.16-4.05-6.28-2.27-8.63-1.9-7.92-3.38-9Z"/><path class="cls-9" d="m410.56,775.88c4.09-7.37,10.81-8.32,11.64-8.66,3.82-1.56,12.82-3.85,19.32-4.08,11.71-.4,30.15,4.05,33.02-.29.27-.41,1.02-1.55.71-2.69-.44-1.63-2.69-2.01-2.62-2.45.12-.77,6.93.99,12.84-.24,6.51-1.36,6.55-5.22,16.41-11.99,9.2-6.32,10.32-3.74,17.84-9.78,5.7-4.58,7.21-7.78,12.13-8.56,4.98-.79,9.62,1.52,10.47,1.96,5.42,2.79,5.88,6.46,8.33,6.12,2.41-.34,3.17-4.07,9.75-13.94,1.07-1.61,1.81-2.65,3.09-2.94,1.95-.43,3.39,1.31,9.28,6.6,4.45,4.01,5.22,4.44,5.95,6.12,1.46,3.38.51,6.78.69,9.23.08,1.04.13,1.96.13,2.84,0,.77.04,1.45.05,2.07,0,.31-.04.85.08,2.24.42,5.17.97,16.4-2.05,19.09-2.91,2.58-5.4-.54-11.98,1.97-2.58.98-7.59,2.97-9.51,7.58-.84,2.02-.59,3.35-1.66,3.91-1.95,1.03-4.17-2.6-9.04-4.4-1.48-.55-2.37-.62-11.42-.49-7.57.11-11.37.17-12.13.49-2.15.89-3.03,1.96-11.18,11.74-4.09,4.91-6.16,7.37-7.14,7.58-5.74,1.22-8.49-8.7-19.74-12.48-1.66-.56-5.25-.79-12.37-1.22-8.82-.54-13.86-.85-22.36-.98-23.11-.35-26.46,1.32-28.31,2.45-2.08,1.27-5.51,3.82-6.42,2.94-.28-.27-1.06-.39-1.8-1.68-.34-.6-.65-2.14-.93-2.82-.95-2.31-1.32-4.78-1.08-5.21Z"/><path class="cls-4" d="m412.37,785.17c-.25,1.39-.71,1.72.51,5.69.38,1.25,2.03,5.13,1.84,9.99-.25,6.22-.11,8.17,1.45,9.75,1.57,1.6,3.74.45,9.51,1.12,3.32.38,2.82.79,10.46,2.68,6.76,1.67,10.14,2.5,12.6,2.68,1.72.12,3.22.38,4.63.73,1.5.37,2.92.83,4.44,1.34,2.01.68,2.6,1.78,3.29,2.62,6.86,8.38,10.08,13.13,11.41,13.83.36.19.69-.4.69-1.14,0-.49-.06-1.08-.06-1.21.12-2.54-.78-6.54,1.27-9.25,1.38-1.82,4.32-1.95,10.89-2.86,2.46-.34,5.38-.93,8.7-1.32,1.69-.2,7.2-.49,17.01-.05.88.04,2.5.06,2.71,1.52.08.6.48,1.41.56,2.07.07.54.06,1.07.15,1.66.11.71.02,1.08.02,1.68,0,.97,1.56,2.09,1.77,2.13.34.06,1.42-1.59,1.68-2.75.14-.62.7-1.58.94-2.34.29-.9.81-1.9,1.18-2.86s.7-1.98,1.7-2.52c1.38-.74,2.82-.73,4.97-.7,1.42.02,3.11-.09,5.48.09,8.7.66,10.32,1.3,12.75-.24,2.88-1.83,1.38-4.92,4.13-10.91.96-2.08,2.52-3.47,3.51-4.63,2.51-2.92,4.34-3.99,5.52-8.53.32-1.23,2.02-7.79-1.43-11.38-1.04-1.08-2.19-1.52-2.85-3.12-1-2.44.69-3.83.24-5.8-.87-3.84-8.81-5.26-13.07-6.02-5.87-1.05-10-1.79-13.07.45-2.53,1.85-2.06,4.06-5.47,6.02-2.47,1.42-3.42.66-5.7,2.23-1.75,1.2-1.3,1.72-4.52,5.35-2.57,2.91-3.87,3.73-4.99,4.24-.88.4-2.12.96-3.56.89-2.96-.14-4.92-2.82-6.18-4.24-2.77-3.13-3.94-2.25-20.91-10.04-8.86-4.07-7.66-3.9-9.03-4.24-5.19-1.28-8.43-.2-24.48,4.02-5.43,1.43-11.03,2.87-18.54,5.58-7.81,2.82-11.58,4.8-12.12,7.81Z"/><path class="cls-14" d="m489.36,749.08c-4.73-.51-3.64-.02-50.06.09-8.07.02-15.87.06-26.28-.15-3.44-.07-7.07-.17-10.97-.3-5.96-.21-18.86-.32-21.77-1.46-1.66-.65,1.93,4.93,3.98,10.23,3.46,8.91,8.2,15.26,9.37,17.29,1.67,2.88,2.83-2.13,6.2-3.27.63-.21,3.35-.26,4.02-.62.5-.27.71-1.23,1.12-1.03,1.06.51,3.17,3.19,2.48,1.26-.27-.75-.27,1.21.33,1.87.93,1.02,1.41.5,1.82,2.78.15.82.92,3.39,1.28,3.51.57.19,7.34-3.62,6.34-5.8s8.66-1.62,8.89-4.47c.61-7.6,7.83-.14,12.77-2.71,8.48-4.42,16.25.75,18.49,1.17,1.39.26.2-.97,8.88-.01.71.08,6.81,1.78,7.66.33.41-.69,4.11-1.2,3.96-2.05-.04-.23,1.7-.34,1.03-1.67-.29-.58-1.33-1.41-1.49-2.23-.21-1.08-2.37-1.43-2.27-1.47,1.07-.38,2.55-.05,2.55-.09,0-.06.17.27,4.28.28.97,0,2.69-.02,4.54-.19,2.51-.24,6.23-.75,7.25-3.13.18-.42.76-.2,1.65-1.13.9-.95,3.91-2.28,4.54-4.42.21-.72,1.32-.75.9-.79-3.51-.36-9.36-1.56-11.51-1.79Z"/><path class="cls-12" d="m507.98,741.34c.77,1.21-2.23,1.25-6.08,4.15-2.06,1.55,2.04,5.93-4.1,7.56-11.51,3.06-20.24,2-20.24,2-18.44-10.27-33.83-4.35-52.82-5.66-9.12-.63-23.11,2.73-31.24-.84-.89-.39-11.13.84-13.21-1.29-4.48-4.59-1.89-10.65-.95-17.69.74-5.56.99-10.86,1.16-13.37.29-4.46,4.54-5.44,9.68-5.09,2.82.19,7.2-.64,9.31,1.89,9.53,11.48,19.87,8.48,20.4,10.21,3.06,9.95,15.17,13.4,20.43,11.67,4.1-1.34,6.66-7.33,10.66-16.68,2.27-5.3,3.74-3.2,4.59-1.45,1.69,3.45,3.68-2.1,8.74-.22,3.4,1.27,5.24,9.71,7.84,6.17,1.01-1.38,2.53.37,5.24,4.58,1.92,2.97,4.04,3.36,4.51,4.58,3.53,9.04,19.36,14.44,19.07,8.12-.13-2.91,4.93-1.88,7.01,1.37Z"/><ellipse class="cls-1" cx="504.98" cy="677.45" rx="20.29" ry="19.04"/><path class="cls-13" d="m519.72,679.21c-.97,5.18-4.22,10.85-10.14,9.52-5.45-1.22-8.74-4.68-10.14-9.52-1.47-5.07,5.61-8.6,10.14-9.52,5.47-1.11,11.13,4.23,10.14,9.52Z"/><path class="cls-2" d="m395.3,624.08c2.84-4.85,4.85-11.44,8.81-7.83,7.86,7.15,17.35,10.25,19.27,12.28,19.63,20.66,41.45,22.58,63.72,30.26,6.71,2.32,6.01,8.37,6.65,11.78,1.06,5.66-11.59,5.81-25.39,2.3-39.81-10.12-70.08-12.45-85.12-18.41-1.03-.41-5.79-1.41-1.1-8.33,7.95-11.72,10.84-18.09,13.14-22.03Z"/><path class="cls-2" d="m491.07,687.4l-4.57-2.55c-.19-.11-.41-.16-.63-.15l-128.2,4.23c-.06,0-.12,0-.18.02l-57.65,10.91c-3.31.63-5.56,3.73-5.12,7.07l3.23,24.89c.09.7.77,1.18,1.46,1.02l191.34-43.21c1.08-.24,1.29-1.69.32-2.23Z"/><path class="cls-2" d="m495.25,694.32l-15.92,5.72-14.14,13.51c-1.01.96-1.12,2.53-.25,3.63l4.36,5.49c.76.96,2.19,1.05,3.07.19l15.83-15.52,7.05-13.02Z"/><polygon class="cls-2" points="513.11 693.99 507.08 695 483.57 740.97 492.61 744.36 507.08 744.36 517.94 735.31 513.11 693.99"/><path class="cls-2" d="m654.3,789.21l14.98-27.21c.34-.61.1-1.38-.53-1.7l-145.33-73.32c-.42-.21-.92-.17-1.3.12l-2.87,2.16c-.66.5-.66,1.49,0,1.98l133.21,98.36c.6.44,1.46.26,1.82-.4Z"/><polygon class="cls-2" points="524.88 674.25 578.31 663.45 575.94 642.56 519.63 663.5 524.88 674.25"/><polygon class="cls-2" points="509.28 661.52 518.27 624.66 535.21 623.59 545.45 618.54 563.55 631.75 509.28 661.52"/><polygon class="cls-2" points="501.58 663.22 501.58 628.69 494.95 621.9 485.42 624.69 492.07 662.76 501.58 663.22"/><path class="cls-2" d="m417.48,699.7c1.1-.14,2.28-.31,3.37-.04s1.9,1.2,3.16,1.12c1.14-.08,2.03-.78,2.81-1.51.34-.32.66-.64,1.1-.83.24-.11.51-.18.62-.08,1.05.94,2.65-.55,1.6-1.5-.98-.88-2.3-.79-3.43-.22-.98.49-1.56,1.51-2.55,1.94-.4.18-.67-.02-1.03-.23-.53-.31-1.08-.58-1.68-.73-1.3-.32-2.65-.2-3.97-.04-.6.07-1.13.43-1.13,1.06,0,.51.52,1.14,1.13,1.06h0Z"/><g class="cls-7"><path class="cls-5" d="m448.33,662.27c1.35-.83,3.28-.33,4.01,1.01.16.29.66.36.89.11,1.09-1.21,2.82-1.8,4.48-1.46.71.15,1.01-.88.3-1.02-2.04-.42-4.23.23-5.58,1.73l.89.11c-1-1.84-3.72-2.52-5.55-1.39-.61.37-.04,1.29.57.92h0Z"/></g><g class="cls-7"><path class="cls-5" d="m466.44,647.87c1.57-.36,3.22.4,3.94,1.74.21.39.74.29.98,0,1.08-1.32,2.89-1.95,4.63-1.74.72.09.71-.98,0-1.06-2.17-.26-4.29.66-5.61,2.27h.98c-.95-1.76-3.18-2.69-5.22-2.23-.71.16-.41,1.18.3,1.02h0Z"/></g><g class="cls-7"><path class="cls-5" d="m457.13,673.94c1.3-.68,3.21-.12,3.78,1.2.16.37.81.59,1.03.13.97-1.99,3.42-3.14,5.69-2.59.7.17,1-.85.3-1.02-2.73-.66-5.79.65-6.97,3.07l1.03.13c-.86-1.95-3.45-2.87-5.44-1.83-.63.33-.07,1.25.57.92h0Z"/></g><g class="cls-7"><path class="cls-5" d="m436.1,667.88c1.54-.18,4.09-.46,4.84,1.26l.94-.52c-.38-.45.09-1.16.51-1.43.73-.46,1.74-.36,2.57-.32.73.04.72-1.02,0-1.06-1.23-.06-2.68-.08-3.61.81-.78.76-.99,1.89-.27,2.74.34.41,1.15-.04.94-.52-.4-.93-1.18-1.55-2.17-1.9-1.2-.42-2.52-.28-3.76-.14-.31.03-.56.22-.56.53,0,.26.26.56.56.53h0Z"/></g><g class="cls-7"><path class="cls-5" d="m404.87,664.59c1.63-1.58,4.55-1.55,6.15.04.43.43,1.01-.04.94-.52-.11-.73.49-1.39,1.14-1.7.77-.36,1.66-.35,2.49-.27.72.06.72-1,0-1.06-1.19-.1-2.49-.02-3.49.67-.91.63-1.39,1.59-1.24,2.65l.94-.52c-2.02-2.01-5.7-2.02-7.75-.04-.51.49.29,1.24.8.75h0Z"/></g><g class="cls-7"><path class="cls-5" d="m408,691.04c1.41-.4,2.93.02,3.9,1.06.23.25.73.18.89-.11.65-1.17,1.94-1.89,3.34-1.85.73.02.73-1.04,0-1.06-1.78-.04-3.49.9-4.31,2.38l.89-.11c-1.22-1.31-3.23-1.84-5-1.33-.69.2-.4,1.22.3,1.02h0Z"/></g><g class="cls-7"><path class="cls-5" d="m398.98,680.12c1.1-.45,2.53-.06,3.22.86.33.45.99.26,1.05-.27.14-1.23,1.53-2.27,2.84-2.09.3.04.6-.07.69-.37.08-.25-.09-.61-.39-.65-2.08-.27-4.04,1.15-4.27,3.12l1.05-.27c-1.07-1.43-3.06-1.94-4.76-1.24-.28.12-.34.5-.2.73.17.27.49.3.77.19h0Z"/></g><g class="cls-7"><path class="cls-5" d="m435.18,693.2c1.11-.45,2.58.19,2.97,1.25.2.54,1.12.48,1.11-.14-.03-1.78,1.76-3.26,3.63-3.07.31.03.56-.27.56-.53,0-.31-.26-.5-.56-.53-2.47-.25-4.8,1.82-4.76,4.13l1.11-.14c-.65-1.76-2.83-2.62-4.63-1.88-.28.12-.34.5-.2.73.17.27.49.3.77.19h0Z"/></g><image width="699" height="699" transform="matrix(0,0,0,0,330.99,425.66)" xlink:href="subtle-texture.jpg"/></svg>