<?xml version="1.0" encoding="UTF-8"?><svg id="Layer_2" xmlns="http://www.w3.org/2000/svg" width="140.4mm" height="143.9mm" xmlns:xlink="http://www.w3.org/1999/xlink" viewBox="0 0 397.98 407.91"><defs><style>.cls-1{fill:url(#linear-gradient);}.cls-2,.cls-3{fill:#f8962a;}.cls-4{fill:#cd4a8e;}.cls-5{fill:#761313;}.cls-6,.cls-7,.cls-8,.cls-9,.cls-10,.cls-11,.cls-12,.cls-13,.cls-3{isolation:isolate;}.cls-7{fill:#334c9e;}.cls-8{fill:#82205e;}.cls-9{fill:#a73063;}.cls-10{fill:#ee6528;}.cls-11{fill:#fef9ee;}.cls-12{fill:#ed2424;}.cls-13{fill:#faaf2c;}</style><linearGradient id="linear-gradient" x1="-567.74" y1="108.07" x2="-303.55" y2="108.07" gradientTransform="translate(294.38 175.09) scale(.16)" gradientUnits="userSpaceOnUse"><stop offset="0" stop-color="#f15a2c"/><stop offset=".18" stop-color="#f15d2c"/><stop offset=".31" stop-color="#f26630"/><stop offset=".43" stop-color="#f47635"/><stop offset=".55" stop-color="#f78d3c"/><stop offset=".65" stop-color="#faab46"/><stop offset=".67" stop-color="#fbb048"/></linearGradient></defs><g id="Layer_4"><path class="cls-2" d="m91.6,114.49c-.75-1.93-2.93-3.11-4.08-3.72-3.91-2.1-6.56-.54-11.37-1.33-2.07-.34-2.44-.77-13.12-6.91-8.01-4.61-9.53-5.36-11.08-4.79-2.46.91-2.21,4.16-3.79,10.1-.77,2.9-.68,1.54-9.04,19.67-6.25,13.57-5.48,12.53-6.41,14.09-1.34,2.23-1.76,3.44-2.62,5.85-.86,2.41-1.28,3.62-.87,4.25,1.38,2.17,7.07-.79,13.7,1.86,2.33.93,2.15,1.5,4.37,2.13,3.77,1.05,5.61-.22,9.04.8,2.4.71,2.12,1.52,4.96,2.92,4.1,2.02,10.27,3.07,11.95,1.06,1.19-1.42-.68-3.38-1.46-7.18-1-4.92.64-8.92,2.33-13.03,6.06-14.74,19.77-19.94,17.49-25.79Z"/><path class="cls-3" d="m266.53,46.99c-.42-2.78.52-5.55,1.58-8.64,1.52-4.46,2.83-4.9,5.13-10.08,1.8-4.04.9-3.53,3.55-10.8,2.48-6.79,3.05-6.64,3.95-10.44.98-4.16.56-5.45,1.97-6.48,2.31-1.68,4.63.93,11.44.72,4.83-.15,6.47-1.54,11.05-.72,1.63.29,3.56.85,4.34,1.08,4.14,1.2,4.17,1.71,6.31,2.16,3.97.83,4.44-.8,8.68,0,2.27.43,2.02.87,5.92,1.8,2.08.5,5.13,1.08,5.13,1.08h0s3.31.38,4.34,1.44c1.72,1.77-1.59,6.81-2.76,8.64-3.83,5.97-6.41,12.55-9.86,18.71-5.43,9.68-7.45,13.64-8.68,19.43-.62,2.94-.26,2.67-.79,4.32-.96,2.99-2.73,5.72-14.99,16.19-2.05,1.75-2.42,2.03-3.16,2.16-4.68.8-7.32-7.43-16.57-15.83-9.02-8.19-15.65-8.66-16.57-14.75Z"/><path class="cls-7" d="m146.59,47.21c24.33-7.58,40.94,14.38,61.39,4.77,9.59-4.51,12.23-12.3,23.51-13.1,4.84-.34,9.3,1.07,18.22,3.91,12.18,3.87,14.06,6.9,24.65,8.8,3.87.7,5.46.62,8.04,1.96,5.71,2.96,6.62,7.84,10.18,12.71,4.82,6.57,11,8.34,16.08,11.24,21.22,12.11,27.5,46.31,27.87,65.01.16,8.37-.85,14.26-2.68,24.93-4.03,23.48-11.72,43.18-13.4,47.41-7.65,19.26-12.64,24.7-11.25,36.66.76,6.6,3.07,11.77,5.9,18.09,5.01,11.21,8.96,20.04,17.69,27.86,2.76,2.47,6.6,5.39,8.58,10.75.7,1.9,1.18,4.17,1.07,9.78-.11,5.52-.22,11.32-2.14,18.09-3.34,11.73-10.22,19.65-14.47,24.44-9.79,11.03-20.03,16.89-30.01,22.48-19.41,10.88-36.42,15.47-48.23,18.57-15.29,4.02-24.37,6.41-37.52,6.35-16.97-.07-29.88-4.15-39.66-7.33-11.89-3.87-19.81-8-35.37-16.13-19.84-10.36-14.95-10.19-27.87-16.13-4.22-1.94-7.28-3.12-9.65-6.35-2.65-3.62-2.4-7.01-2.14-21.02.16-8.87.24-13.34,0-15.15-1.18-8.96-4.06-11.59-5.9-19.06-2.2-8.94.45-11.13.54-22.97.09-12.23-2.71-13.91-7.5-39.1-2.04-10.72-3.06-16.08-3.75-23.46-1.84-19.52.71-26.78-3.75-42.52-2.07-7.3-2.79-6.37-4.29-12.71-.94-4.01-4.29-18.91.54-33.73,2.24-6.87,4.24-7.6,20.37-27.86,17.83-22.41,17.15-23.73,26.26-33.24,13.65-14.23,20.47-21.35,28.72-23.92Z"/><path class="cls-11" d="m140.07,89.57c-9.89,1.68-11.89,12.35-25.14,36.35-12.38,22.43-18.68,27.7-20.85,43.06-.23,1.6-.04.73-.61,15.66,0,0-.74,19.49-1.84,39.71-1.88,34.66-2.78,34.36-1.23,39.15,2.15,6.64,7.97,19.8,14.72,29.64,1.34,1.96,5.27,7.5,7.36,15.66.89,3.48,1.08,5.99,1.23,7.27,1.26,11.03,10.13,24.51,20.23,31.88,6.48,4.72,15.85,6.38,34.34,9.51,27.34,4.62,42.47,7.18,61.93,4.47,13.55-1.88,29.13-6.31,32.5-7.27,7.1-2.02,10.66-3.03,12.26-3.91,5.65-3.11,12.75-9.76,19.62-45.3,2.44-12.65,4.28-22.16,4.91-35.79.78-17.1-1.28-20.45-.61-41.94.48-15.58,1.59-14.9,1.84-29.08.16-8.98.33-22.54-2.45-39.71-2.02-12.45-3.56-22.01-9.2-34.11-5.7-12.24-12.07-19.58-18.4-26.84-11.11-12.77-16.33-14.22-19.62-14.54-5.14-.5-10.56,1.25-15.33,2.8-6.13,1.98-5.63,2.89-12.26,5.03-1.58.51-7.62,2.4-15.94,3.36-.85.1-3.9.43-8.58.56-5.08.14-10.79,0-21.46-1.12-6.92-.72-8.01-1.02-22.07-2.8-9.64-1.22-14.48-1.82-15.33-1.68Z"/><path class="cls-10" d="m291.61,144.74c-2.68-1.91-5.86-.65-16.21-1.08-3.19-.13-.66-.16-5.14-.54-2.41-.2-3.4-.22-3.95-.9-.6-.74-.18-1.62.2-3.42.24-1.13,1.26-6.07-.2-6.85-.71-.38-1.67.41-4.15,1.8-2.15,1.21-5.24,2.95-8.3,3.79-1.01.28-3.52.37-8.5.54-3.61.13-5.42.19-7.91.18-5.69-.02-8.53-.03-9.68-.54-5.43-2.41-5.92-9.82-7.71-9.55-.82.12-.57,1.65-2.37,4.69-.98,1.64-2.24,3.72-4.55,4.51-1.21.42-2.05.25-3.56.18-1.56-.08-4.95.43-11.66,1.44-4.3.65-4.47.73-7.11,1.08-4.88.66-7.34.98-8.5.54-4.16-1.57-4.43-6.78-6.72-6.67-1.65.08-1.63,2.77-4.35,3.79-1.83.68-3.23-.01-6.32-.54-2.13-.36-4.32-.36-8.7-.36-10.14,0-12.75,2.22-15.61.18-2.43-1.73-2-4.36-3.95-4.69-2.22-.37-2.88,3.01-6.72,4.51-4.98,1.94-9.12-1.71-12.65.72-1.3.9-1.78,2.1-2.17,3.06-4.13,9.97-15.72,19.92-19.38,23.03-.22.18-1.33,2.15-1.66,5.35-.33,3.24-.32,7.44-.34,8.09-.05,1.61.33-.06.44.28.03.09-1.47,7.91-1.63,14.13-.21,8.35-.25,17.33-.7,20.97-2.51,20.21-.44,22.77-.4,23.21.31,3.34-2.39,13.23-1.94,22.66.1,2.09.44,3.62,1.43,6.41,0,0,1.05,4.91,4.07,10.1.26.44-.34-.96-.08-.61,2.03,2.65,2.23-8.15-.16-1.07-.66,1.96,5.98,12.58,6.8,14.52,1.07,2.55-1.37-6.61,0,0,.21,1.02,0,0,0,0,1.42-1.47,2.07-3.14,5.27-4.2,2.32-.77,4.7-2.31,6.41-2.19.54.04,3.32,2.33,4.65,3.91,1.7,2.01,2.67,3.78,3.4,6.41,2.13,7.62,2.61,5.78,4.54,13.24,1.23,4.76,1.84,7.14,2.04,10.14.48,7.15-1.36,10.86,1.13,12.83,1.04.82,1.83.55,5.44.83,2.53.2,6.98,1.17,15.88,3.1,3.55.77,6.13,1.38,9.07,2.07,8.92,2.09,13.38,3.14,14.29,3.52,11.11,4.56,14.06,17.6,15.88,16.96,1.78-.62-2.78-12.45,1.13-14.48.92-.48,1.89-.21,2.95,0,4.38.85,6.63-.08,14.97-1.24,13.56-1.88,21.84-3.03,24.04.21,1.32,1.93,1.13,6.41,1.13,6.41,0,0,.96,2.04,1.81,2.07.76.03,1.36-1.51,2.27-3.72,1.63-3.94,2.45-5.92,2.95-6.41,1.19-1.18,2.92-1.51,9.98-1.24,10.54.4,13.49,1.39,15.65-.41,1.64-1.37.75-2.62,1.81-6.41,2.37-8.44,8.77-9.36,11.11-18,.62-2.28,1.18-4.33.45-6.83-1.29-4.44-5.15-5.15-6.58-9.31-.9-2.62-.82-6.58,1.36-9.1,5.07-5.86,17.88.24,22.68-5.17,1.58-1.78,3.29-9.66,3.59-15.98.07-1.38-.05-2.54-.09-3.78-.01-.51-.02-1.02-.04-1.59-.04-1.16-.04-1.16-.04-1.16,0-2.02.02-1.12-.21-4.28-.09-1.22-.18-3.01-.32-5.58-.68-12.3.5-16.29,2.29-31.42,1.96-16.59.41-30.62-1.29-38.58-1.15-5.37-1.71-17.77-1.71-17.77-1.66-6.08-2.87-1.2-4.3-6.48-2.41-8.9-2.02-8.17-3.59-9.29Z"/><path class="cls-9" d="m123.08,294.28c4.35-7.6,11.47-8.58,12.36-8.93,4.06-1.61,13.61-3.98,20.52-4.2,12.43-.41,32.02,4.18,35.06-.3.29-.42,1.08-1.6.76-2.78-.47-1.68-2.85-2.07-2.78-2.52.13-.79,7.36,1.02,13.64-.25,6.91-1.4,6.96-5.39,17.43-12.37,9.77-6.52,10.95-3.86,18.94-10.09,6.05-4.72,7.66-8.03,12.88-8.83,5.28-.81,10.21,1.57,11.11,2.02,5.75,2.88,6.24,6.67,8.84,6.31,2.56-.35,3.36-4.19,10.36-14.39,1.14-1.66,1.93-2.74,3.28-3.03,2.07-.44,3.6,1.35,9.85,6.81,4.73,4.13,5.54,4.58,6.31,6.31,1.55,3.49.54,7,.74,9.52.08,1.07.14,2.03.13,2.93,0,.79.04,1.5.06,2.13,0,.32-.04.87.08,2.31.45,5.33,1.03,16.92-2.18,19.69-3.09,2.66-5.73-.56-12.72,2.03-2.74,1.01-8.06,3.07-10.1,7.82-.89,2.08-.62,3.45-1.77,4.04-2.07,1.06-4.43-2.68-9.6-4.54-1.57-.57-2.52-.64-12.12-.5-8.04.11-12.07.18-12.88.5-2.29.92-3.22,2.02-11.87,12.11-4.35,5.07-6.54,7.61-7.58,7.82-6.09,1.26-9.02-8.98-20.96-12.87-1.76-.58-5.58-.81-13.13-1.26-9.36-.56-14.72-.88-23.74-1.01-24.54-.36-28.1,1.36-30.06,2.52-2.21,1.31-5.85,3.94-6.82,3.03-.29-.28-1.13-.41-1.91-1.74-.36-.62-.69-2.21-.99-2.91-1.01-2.38-1.4-4.93-1.15-5.38Z"/><path class="cls-4" d="m125.01,303.86c-.26,1.44-.75,1.77.54,5.87.41,1.29,2.16,5.29,1.95,10.31-.26,6.41-.11,8.42,1.54,10.06,1.67,1.65,3.97.46,10.09,1.15,3.53.4,2.99.82,11.1,2.76,7.18,1.72,10.77,2.58,13.38,2.76,1.83.13,3.41.39,4.92.75,1.6.38,3.1.86,4.71,1.39,2.13.7,2.76,1.83,3.49,2.7,7.28,8.65,10.7,13.54,12.11,14.27.38.2.74-.41.73-1.18,0-.5-.07-1.11-.06-1.25.13-2.63-.83-6.74,1.35-9.54,1.46-1.88,4.59-2.02,11.56-2.95,2.61-.35,5.71-.96,9.24-1.37,1.79-.21,7.65-.5,18.06-.06.94.04,2.66.06,2.87,1.57.09.62.51,1.46.59,2.14.07.56.06,1.11.16,1.72.12.74.02,1.11.02,1.73,0,1,1.65,2.16,1.88,2.2.36.07,1.51-1.64,1.78-2.83.15-.64.74-1.63,1-2.41.3-.93.86-1.96,1.25-2.96s.74-2.05,1.8-2.6c1.47-.76,2.99-.75,5.27-.72,1.51.02,3.3-.09,5.82.09,9.24.69,10.95,1.34,13.53-.25,3.06-1.88,1.47-5.08,4.39-11.25,1.01-2.15,2.68-3.58,3.73-4.77,2.66-3.02,4.61-4.12,5.86-8.81.34-1.27,2.15-8.04-1.51-11.74-1.11-1.12-2.33-1.57-3.03-3.22-1.07-2.52.73-3.95.25-5.98-.93-3.96-9.35-5.43-13.88-6.21-6.23-1.08-10.62-1.85-13.88.46-2.69,1.9-2.19,4.19-5.8,6.21-2.62,1.47-3.63.68-6.06,2.3-1.86,1.24-1.38,1.77-4.79,5.52-2.73,3.01-4.11,3.85-5.3,4.37-.94.41-2.25.99-3.79.92-3.14-.14-5.23-2.91-6.56-4.37-2.94-3.23-4.19-2.33-22.21-10.36-9.41-4.19-8.13-4.02-9.59-4.37-5.51-1.32-8.95-.21-25.99,4.14-5.77,1.47-11.71,2.96-19.68,5.75-8.3,2.91-12.3,4.95-12.87,8.06Z"/><path class="cls-13" d="m206.76,266.62c-5.02-.52-3.87-.03-53.15.09-8.56.02-16.86.06-27.91-.16-3.65-.07-7.51-.17-11.64-.31-6.33-.21-20.02-.33-23.11-1.51-1.76-.67,2.05,5.09,4.23,10.55,3.67,9.19,8.71,15.74,9.95,17.84,1.77,2.98,3-2.2,6.58-3.38.66-.22,3.56-.27,4.27-.64.53-.28.76-1.26,1.19-1.06,1.13.52,3.37,3.29,2.63,1.3-.29-.77-.29,1.25.35,1.93.99,1.05,1.5.52,1.93,2.86.15.85.98,3.5,1.36,3.62.61.19,7.8-3.74,6.73-5.99s9.2-1.68,9.44-4.61c.64-7.84,8.31-.14,13.56-2.8,9-4.56,17.26.78,19.64,1.2,1.48.27.21-1.01,9.43-.01.75.08,7.23,1.83,8.14.34.43-.71,4.36-1.24,4.21-2.12-.04-.24,1.81-.35,1.09-1.72-.31-.6-1.41-1.45-1.58-2.3-.22-1.12-2.52-1.48-2.41-1.52,1.13-.39,2.71-.05,2.71-.09,0-.06.18.28,4.55.29,1.03,0,2.86-.02,4.83-.2,2.66-.24,6.62-.78,7.7-3.23.19-.44.81-.21,1.75-1.17.96-.98,4.15-2.35,4.83-4.56.23-.74,1.4-.77.95-.81-3.73-.37-9.94-1.61-12.22-1.85Z"/><path class="cls-8" d="m226.53,258.64c.82,1.24-2.37,1.29-6.46,4.28-2.19,1.6,2.16,6.12-4.35,7.8-12.22,3.16-21.49,2.06-21.49,2.06-19.58-10.59-35.92-4.49-56.09-5.84-9.68-.65-24.54,2.82-33.17-.87-.95-.41-11.81.87-14.02-1.33-4.75-4.73-2.01-10.99-1.01-18.26.79-5.73,1.06-11.2,1.23-13.79.31-4.6,4.82-5.62,10.27-5.26,3,.2,7.65-.67,9.88,1.95,10.11,11.84,21.1,8.75,21.66,10.53,3.25,10.26,16.11,13.83,21.7,12.05,4.35-1.39,7.07-7.56,11.32-17.21,2.41-5.47,3.97-3.3,4.87-1.5,1.8,3.56,3.9-2.17,9.28-.22,3.61,1.31,5.56,10.02,8.33,6.36,1.07-1.42,2.69.38,5.57,4.72,2.04,3.07,4.28,3.47,4.79,4.72,3.74,9.33,20.56,14.9,20.25,8.38-.14-3,5.23-1.94,7.45,1.42Z"/><ellipse class="cls-1" cx="223.34" cy="192.72" rx="21.54" ry="19.65"/><path class="cls-12" d="m238.99,194.54c-1.03,5.34-4.49,11.19-10.77,9.82-5.79-1.26-9.28-4.83-10.77-9.82-1.57-5.23,5.95-8.87,10.77-9.82,5.81-1.15,11.82,4.36,10.77,9.82Z"/><path class="cls-2" d="m106.88,137.65c3.02-5.01,5.15-11.81,9.36-8.08,8.34,7.38,18.42,10.58,20.47,12.67,20.85,21.32,44.02,23.29,67.66,31.22,7.13,2.39,6.38,8.64,7.06,12.15,1.13,5.84-12.3,5.99-26.96,2.37-42.27-10.44-74.42-12.84-90.38-18.99-1.1-.42-6.14-1.46-1.16-8.59,8.44-12.09,11.51-18.67,13.96-22.73Z"/><path class="cls-2" d="m208.65,203.02l-4.95-2.68c-.19-.1-.4-.15-.61-.14l-136.17,4.37c-.06,0-.12,0-.18.02l-61.53,11.32c-3.33.61-5.6,3.74-5.15,7.1l3.46,25.87c.09.7.76,1.17,1.45,1.02l203.37-44.63c1.09-.24,1.3-1.7.32-2.24Z"/><path class="cls-2" d="m213.01,210.13l-16.91,5.9-15.05,13.98c-1.04.97-1.15,2.58-.25,3.68l4.76,5.82c.76.93,2.16,1.02,3.03.19l16.94-16.13,7.49-13.43Z"/><polygon class="cls-2" points="231.98 209.78 225.57 210.82 200.61 258.25 210.21 261.76 225.58 261.76 237.1 252.41 231.98 209.78"/><path class="cls-2" d="m381.85,308.11l15.96-28.17c.35-.62.11-1.41-.53-1.72l-154.41-75.69c-.41-.2-.9-.16-1.27.11l-3.12,2.29c-.68.5-.67,1.51,0,2l141.57,101.57c.6.43,1.43.24,1.79-.39Z"/><polygon class="cls-2" points="244.48 189.42 301.21 178.28 298.69 156.72 238.9 178.32 244.48 189.42"/><polygon class="cls-2" points="227.91 176.28 237.46 138.25 255.45 137.15 266.31 131.94 285.53 145.57 227.91 176.28"/><polygon class="cls-2" points="219.73 178.03 219.73 142.41 212.69 135.4 202.57 138.28 209.63 177.56 219.73 178.03"/><path class="cls-2" d="m130.43,215.68c1.16-.14,2.42-.32,3.58-.04s2.02,1.24,3.36,1.15c1.21-.08,2.16-.8,2.99-1.55.36-.33.7-.66,1.17-.86.26-.11.54-.19.66-.08,1.12.97,2.81-.57,1.7-1.55-1.04-.9-2.44-.81-3.64-.23-1.04.51-1.66,1.55-2.71,2-.43.18-.71-.02-1.1-.24-.56-.32-1.14-.6-1.79-.76-1.38-.34-2.82-.21-4.22-.04-.64.08-1.2.45-1.2,1.09,0,.53.55,1.17,1.2,1.09h0Z"/><g class="cls-6"><path class="cls-5" d="m163.18,177.06c1.43-.85,3.48-.35,4.26,1.04.17.3.7.37.94.11,1.16-1.25,2.99-1.86,4.76-1.51.75.15,1.07-.9.32-1.05-2.16-.44-4.49.23-5.93,1.79l.94.11c-1.06-1.9-3.95-2.6-5.9-1.44-.64.38-.04,1.33.61.94h0Z"/></g><g class="cls-6"><path class="cls-5" d="m182.41,162.2c1.66-.37,3.42.41,4.18,1.79.23.41.78.3,1.04,0,1.15-1.37,3.07-2.01,4.92-1.8.76.09.76-1.01,0-1.09-2.3-.27-4.56.68-5.96,2.34h1.04c-1.01-1.82-3.38-2.77-5.54-2.3-.75.17-.43,1.22.32,1.05h0Z"/></g><g class="cls-6"><path class="cls-5" d="m172.53,189.1c1.38-.7,3.4-.13,4.02,1.24.17.38.86.61,1.1.13,1.03-2.05,3.63-3.24,6.05-2.67.75.18,1.07-.88.32-1.05-2.9-.68-6.15.68-7.4,3.17l1.1.13c-.91-2.02-3.66-2.96-5.78-1.89-.67.34-.07,1.29.61.94h0Z"/></g><g class="cls-6"><path class="cls-5" d="m150.2,182.85c1.64-.18,4.35-.47,5.14,1.3l1-.53c-.4-.47.09-1.2.54-1.47.78-.47,1.85-.38,2.73-.33.77.04.77-1.05,0-1.09-1.3-.07-2.84-.08-3.83.84-.83.78-1.05,1.95-.29,2.83.36.42,1.22-.04,1-.53-.43-.96-1.25-1.6-2.31-1.96-1.27-.44-2.68-.29-3.99-.15-.32.04-.6.23-.6.55,0,.27.28.58.6.55h0Z"/></g><g class="cls-6"><path class="cls-5" d="m117.04,179.46c1.73-1.63,4.83-1.6,6.53.04.46.44,1.08-.04,1-.53-.11-.75.52-1.44,1.21-1.75.82-.37,1.76-.36,2.65-.28.77.07.76-1.03,0-1.09-1.26-.11-2.65-.02-3.7.69-.97.65-1.48,1.64-1.31,2.73l1-.53c-2.15-2.07-6.05-2.08-8.23-.04-.54.51.31,1.28.85.77h0Z"/></g><g class="cls-6"><path class="cls-5" d="m120.36,206.74c1.5-.41,3.12.02,4.14,1.1.25.26.77.19.94-.11.69-1.2,2.06-1.95,3.55-1.91.77.02.77-1.08,0-1.09-1.89-.04-3.71.93-4.58,2.46l.94-.11c-1.29-1.35-3.43-1.9-5.31-1.38-.74.2-.42,1.26.32,1.05h0Z"/></g><g class="cls-6"><path class="cls-5" d="m110.79,195.47c1.17-.47,2.69-.06,3.42.89.35.46,1.05.27,1.12-.28.15-1.26,1.62-2.34,3.01-2.16.32.04.64-.07.74-.38.08-.26-.1-.63-.42-.67-2.21-.28-4.3,1.18-4.53,3.22l1.12-.28c-1.13-1.47-3.25-2-5.06-1.28-.3.12-.36.51-.22.75.18.28.53.31.82.2h0Z"/></g><g class="cls-6"><path class="cls-5" d="m149.23,208.97c1.18-.47,2.74.2,3.15,1.29.21.56,1.19.5,1.18-.15-.03-1.84,1.87-3.36,3.86-3.17.32.03.6-.27.6-.55,0-.32-.28-.52-.6-.55-2.62-.25-5.1,1.88-5.06,4.26l1.18-.15c-.69-1.81-3-2.7-4.91-1.94-.3.12-.36.51-.22.75.18.28.53.31.82.2h0Z"/></g></g></svg>