<?xml version="1.0" encoding="UTF-8"?>
<svg id="Layer_1" data-name="Layer 1" xmlns="http://www.w3.org/2000/svg" xmlns:xlink="http://www.w3.org/1999/xlink" viewBox="0 0 330.51 494.82">
  <defs>
    <style>
      .cls-1, .cls-2, .cls-3, .cls-4, .cls-5, .cls-6, .cls-7, .cls-8, .cls-9, .cls-10, .cls-11, .cls-12, .cls-13, .cls-14, .cls-15 {
        fill: none;
      }

      .cls-16 {
        font-size: 15.61px;
      }

      .cls-16, .cls-17, .cls-18, .cls-19, .cls-20, .cls-21, .cls-22, .cls-23, .cls-24, .cls-25, .cls-26, .cls-27, .cls-28, .cls-29, .cls-30, .cls-31, .cls-32 {
        isolation: isolate;
      }

      .cls-16, .cls-17, .cls-18, .cls-19, .cls-20, .cls-21, .cls-22, .cls-23, .cls-24, .cls-25, .cls-26, .cls-27, .cls-29, .cls-30, .cls-31, .cls-32 {
        font-family: Phosphate-Inline, Phosphate;
      }

      .cls-16, .cls-18, .cls-24, .cls-31 {
        fill: #e41e26;
      }

      .cls-17 {
        font-size: 8px;
      }

      .cls-17, .cls-19, .cls-20, .cls-23, .cls-25, .cls-26, .cls-27, .cls-30, .cls-32 {
        fill: #df0e7b;
      }

      .cls-18 {
        font-size: 17.11px;
      }

      .cls-19 {
        font-size: 5.99px;
      }

      .cls-20 {
        font-size: 7.87px;
      }

      .cls-33 {
        clip-path: url(#clippath);
      }

      .cls-21 {
        font-size: 6.28px;
      }

      .cls-21, .cls-22, .cls-29 {
        fill: #e21569;
      }

      .cls-34 {
        fill: #f79221;
      }

      .cls-35 {
        fill: #f47c20;
      }

      .cls-22 {
        font-size: 8.18px;
      }

      .cls-23 {
        font-size: 8px;
      }

      .cls-36 {
        clip-path: url(#clippath-1);
      }

      .cls-37 {
        clip-path: url(#clippath-2);
      }

      .cls-24 {
        font-size: 19.89px;
      }

      .cls-2 {
        stroke: #b92025;
      }

      .cls-2, .cls-3, .cls-4, .cls-5, .cls-6, .cls-7, .cls-8, .cls-9, .cls-10, .cls-11, .cls-12, .cls-13 {
        stroke-width: 4px;
      }

      .cls-2, .cls-3, .cls-4, .cls-5, .cls-6, .cls-7, .cls-8, .cls-9, .cls-10, .cls-11, .cls-12, .cls-13, .cls-14, .cls-15 {
        stroke-miterlimit: 10;
      }

      .cls-3 {
        stroke: #b82025;
      }

      .cls-4 {
        stroke: #b72025;
      }

      .cls-5 {
        stroke: #c42727;
      }

      .cls-6 {
        stroke: #ba2026;
      }

      .cls-7 {
        stroke: #c82727;
      }

      .cls-8 {
        stroke: #c82127;
      }

      .cls-9 {
        stroke: #d23b27;
      }

      .cls-10 {
        stroke: #c93228;
      }

      .cls-11 {
        stroke: #c72127;
      }

      .cls-12 {
        stroke: #d22a28;
      }

      .cls-13 {
        stroke: #c52127;
      }

      .cls-14 {
        stroke: #f4c22d;
      }

      .cls-15 {
        stroke: #f7b219;
      }

      .cls-25 {
        font-size: 8.31px;
      }

      .cls-26 {
        font-size: 7.71px;
      }

      .cls-27 {
        font-size: 8.11px;
      }

      .cls-29 {
        font-size: 8.6px;
      }

      .cls-30 {
        font-size: 6.09px;
      }

      .cls-31 {
        font-size: 17.53px;
      }

      .cls-32 {
        font-size: 8.15px;
      }
    </style>
    <clipPath id="clippath">
      <rect class="cls-1" width="330.51" height="326.13"/>
    </clipPath>
    <clipPath id="clippath-1">
      <rect class="cls-1" x="108.62" y="386.74" width="113.27" height="107.84"/>
    </clipPath>
    <clipPath id="clippath-2">
      <rect class="cls-1" x="108.4" y="386.5" width="113.71" height="108.32"/>
    </clipPath>
  </defs>
  <g class="cls-33">
    <g id="Group_1" data-name="Group 1">
      <path id="Path_1" data-name="Path 1" class="cls-34" d="m149.49,80.52l-24.79,6.25-45.01-53.78c-2.51-3.54-1.53-8.35,2.19-10.74.27-.17.55-.33.84-.47L134.49,1.3c4.05-1.49,8.6.43,10.16,4.28.23.56.38,1.15.46,1.74l4.38,73.2Z"/>
      <path id="Path_2" data-name="Path 2" class="cls-14" d="m149.49,80.52l-24.79,6.25-45.01-53.78c-2.51-3.54-1.53-8.35,2.19-10.74.27-.17.55-.33.84-.47L134.49,1.3c4.05-1.49,8.6.43,10.16,4.28.23.56.38,1.15.46,1.74l4.38,73.2Z"/>
      <path id="Path_3" data-name="Path 3" class="cls-34" d="m218.82,87.2l-28.78-13.07,7.31-66.38c.43-4.22,4.37-7.31,8.79-6.9.36.03.71.09,1.06.17l53.38,16.32c4.13,1.37,6.31,5.66,4.88,9.6-.2.55-.47,1.08-.8,1.57l-45.85,58.7Z"/>
      <path id="Path_4" data-name="Path 4" class="cls-14" d="m218.82,87.2l-28.78-13.07,7.31-66.38c.43-4.22,4.37-7.31,8.79-6.9.36.03.71.09,1.06.17l53.38,16.32c4.13,1.37,6.31,5.66,4.88,9.6-.2.55-.47,1.08-.8,1.57l-45.85,58.7Z"/>
      <path id="Path_5" data-name="Path 5" class="cls-34" d="m86.08,192.68l1.49,8.76c.68,3.97-1.14,7.95-4.66,10.16l-54.36,34.21c-4.26,2.24-5,5.29-6.78.96L.83,190.5c-.42-3.78,8.6-2.91,13.09-3.56.45-.07.91-.12,1.36-.15l59.81-2.65c5.41-.23,10.13,3.44,10.99,8.54"/>
      <path id="Path_6" data-name="Path 6" class="cls-14" d="m86.08,192.68l1.49,8.76c.68,3.97-1.14,7.95-4.66,10.16l-54.36,34.21c-4.26,2.24-5,5.29-6.78.96L.83,190.5c-.42-3.78,8.6-2.91,13.09-3.56.45-.07.91-.12,1.36-.15l59.81-2.65c5.41-.23,10.13,3.45,10.98,8.54Z"/>
      <path id="Path_7" data-name="Path 7" class="cls-34" d="m258.52,168.06c0,46.64-37.37,84.46-83.47,84.46s-83.47-37.82-83.47-84.46,37.37-84.46,83.47-84.46,83.47,37.82,83.47,84.46"/>
      <ellipse id="Ellipse_1" data-name="Ellipse 1" class="cls-14" cx="175.04" cy="168.06" rx="83.47" ry="84.46"/>
      <path id="Path_8" data-name="Path 8" class="cls-34" d="m258.52,207.46l7.38-21.26,61.04,1.25c9.79,8.13-9.71,45.66-9.71,45.66-.58,3.56-14.26,31.33-17.69,30l-41.01-55.65Z"/>
      <path id="Path_9" data-name="Path 9" class="cls-14" d="m258.52,207.46l7.38-21.26,61.04,1.25c9.79,8.13-9.71,45.66-9.71,45.66-.58,3.56-14.26,31.33-17.69,30l-41.01-55.65Z"/>
      <path id="Path_10" data-name="Path 10" class="cls-34" d="m178.9,325.26l-29.03.06c-4.94,0-8.93-3.82-8.93-8.52,0-.18,0-.37.02-.55l3.33-50.72c.72-4.96,5.16-8.66,10.42-8.67l15.97,1.05c6.06.02,10.97,4.71,10.95,10.49,0,0,0,0,0,.01l2.72,52.74c-.08,2.4-2.18,4.28-4.69,4.2-.25,0-.5-.03-.74-.08"/>
      <path id="Path_11" data-name="Path 11" class="cls-14" d="m178.9,325.26l-29.03.06c-4.94,0-8.93-3.82-8.93-8.52,0-.18,0-.37.02-.55l3.33-50.72c.72-4.96,5.16-8.66,10.42-8.67l15.97,1.05c6.06.02,10.97,4.71,10.95,10.49,0,0,0,0,0,.01l2.72,52.74c-.09,2.39-2.19,4.27-4.71,4.19-.24,0-.49-.03-.73-.08Z"/>
      <path id="Path_12" data-name="Path 12" class="cls-34" d="m246.56,304.51l-43.66,17.26c-3.53,1.39-7.58-.22-9.03-3.59-.3-.7-.47-1.44-.51-2.19l-2.87-52.66c-.26-4.49,3-8.48,7.63-9.34l17.14-3.14c3.73-.91,7.65.54,9.76,3.61l24.23,41.65c1.82,2.63,1.06,6.17-1.71,7.9-.31.19-.64.36-.98.5"/>
      <path id="Path_13" data-name="Path 13" class="cls-14" d="m246.56,304.51l-43.66,17.26c-3.53,1.39-7.58-.22-9.03-3.59-.3-.7-.47-1.44-.51-2.19l-2.87-52.66c-.26-4.49,3-8.48,7.63-9.34l17.14-3.14c3.73-.91,7.65.54,9.76,3.61l24.23,41.65c1.82,2.63,1.06,6.17-1.7,7.9-.31.19-.63.36-.97.5Z"/>
      <path id="Path_14" data-name="Path 14" class="cls-34" d="m267.46,37.44l-34.99,44.12c-2.53,3.19-2.06,7.7,1.07,10.35l6.51,5.52c3.71,3.14,9.36,2.92,12.78-.51l37.28-37.17c3.45-3.44,3.32-8.9-.28-12.19-.03-.03-.06-.05-.09-.08l-12.24-10.87c-2.73-2.44-7.03-2.3-9.59.3-.17.17-.32.35-.47.54"/>
      <path id="Path_15" data-name="Path 15" class="cls-14" d="m267.46,37.44l-34.99,44.12c-2.53,3.19-2.06,7.7,1.07,10.35l6.51,5.52c3.71,3.14,9.36,2.92,12.78-.51l37.28-37.17c3.45-3.44,3.32-8.9-.28-12.19-.03-.03-.06-.05-.09-.08l-12.24-10.87c-2.73-2.44-7.03-2.31-9.59.3-.16.16-.31.34-.46.52Z"/>
      <path id="Path_16" data-name="Path 16" class="cls-34" d="m186.54,74.15h-33.56c12.15,0,0,.2,0,0l-.38-60.28c-.01-4.82,4.07-8.74,9.13-8.75h24.81c.21,0,.39.17.39.37h0v68.28c0,.2-.17.37-.38.37,0,0,0,0,0,0"/>
      <path id="Path_17" data-name="Path 17" class="cls-14" d="m186.54,74.15h-33.56c12.15,0,0,.2,0,0l-.38-60.28c-.01-4.82,4.07-8.74,9.13-8.75h24.81c.21,0,.39.17.39.37h0v68.28c0,.2-.16.37-.37.38,0,0,0,0-.01,0Z"/>
      <path id="Path_18" data-name="Path 18" class="cls-34" d="m69.52,177.44H10.92c-3.54-.01-6.41-2.76-6.4-6.14,0-.16,0-.32.02-.47l1.95-23.93c.42-5.34,5.08-9.46,10.7-9.47h58.61c4.55.02,8.23,3.55,8.21,7.88,0,.45-.04.89-.12,1.33l-4.1,22.52c-.85,4.77-5.19,8.26-10.26,8.27"/>
      <path id="Path_19" data-name="Path 19" class="cls-14" d="m69.52,177.44H10.92c-3.54-.01-6.41-2.76-6.4-6.14,0-.16,0-.32.02-.47l1.95-23.93c.42-5.34,5.08-9.46,10.7-9.47h58.61c4.55.02,8.23,3.55,8.21,7.88,0,.45-.04.89-.12,1.33l-4.1,22.52c-.85,4.77-5.18,8.26-10.26,8.27Z"/>
      <path id="Path_20" data-name="Path 20" class="cls-34" d="m234.51,234.52l8.67-6.11c4.91-3.46,11.83-2.47,15.46,2.21.02.02.03.04.05.06l29.2,38.06c3.63,4.73,2.57,11.37-2.37,14.86l-8.67,6.11c-4.91,3.46-11.83,2.47-15.46-2.21-.02-.02-.03-.04-.05-.06l-29.2-38.06c-3.63-4.73-2.57-11.37,2.37-14.86"/>
      <path id="Path_21" data-name="Path 21" class="cls-14" d="m234.51,234.52l8.67-6.11c4.91-3.46,11.83-2.47,15.46,2.21.02.02.03.04.05.06l29.2,38.06c3.63,4.73,2.57,11.37-2.37,14.86l-8.67,6.11c-4.91,3.46-11.83,2.47-15.46-2.21-.02-.02-.03-.04-.05-.06l-29.2-38.06c-3.63-4.73-2.57-11.37,2.37-14.86Z"/>
      <path id="Path_22" data-name="Path 22" class="cls-34" d="m78.88,126.81l-49.62-3.08c-4.3-.28-7.54-3.83-7.24-7.93.06-.82.26-1.63.6-2.39l14.41-32.56c1.89-4.3,7.09-6.33,11.6-4.52.58.23,1.14.53,1.66.87l41.19,27.41c3.01,2.01,4.13,5.75,2.69,8.97l-2.54,5.73c-2.14,4.83-7.26,7.84-12.75,7.51"/>
      <path id="Path_23" data-name="Path 23" class="cls-14" d="m78.88,126.81l-49.62-3.08c-4.3-.28-7.54-3.83-7.24-7.93.06-.82.26-1.63.6-2.39l14.41-32.56c1.89-4.3,7.09-6.33,11.6-4.52.58.23,1.14.53,1.66.87l41.19,27.41c3.01,2.01,4.13,5.75,2.69,8.97l-2.54,5.73c-2.14,4.83-7.26,7.84-12.75,7.51Z"/>
      <path id="Path_24" data-name="Path 24" class="cls-34" d="m116.22,94.28l-10.11,6.97-60.55-37.65c-3.52-2.21-4.49-6.72-2.17-10.07.29-.41.62-.8.99-1.15l16.88-15.94c3.41-3.23,8.93-3.21,12.32.04.35.34.68.71.96,1.1l41.69,56.69Z"/>
      <path id="Path_25" data-name="Path 25" class="cls-14" d="m116.22,94.28l-10.11,6.97-60.55-37.65c-3.52-2.21-4.49-6.72-2.17-10.07.29-.41.62-.8.99-1.15l16.88-15.94c3.41-3.23,8.93-3.21,12.32.04.35.34.68.71.96,1.1l41.69,56.69Z"/>
      <path id="Path_26" data-name="Path 26" class="cls-34" d="m295.61,72.06l-37.59,35.31c-3.31,3.12-3.99,7.98-1.65,11.82l5.56,9.1c2.34,3.84,7.1,5.68,11.59,4.48l35.89-9.68c3.76-1.02,6.05-4.63,5.27-8.28l-8.47-39.62c-.68-3.26-3.99-5.37-7.41-4.73-1.21.23-2.32.79-3.2,1.61"/>
      <path id="Path_27" data-name="Path 27" class="cls-14" d="m295.61,72.06l-37.59,35.31c-3.31,3.12-3.99,7.98-1.65,11.82l5.56,9.1c2.34,3.84,7.1,5.68,11.59,4.48l35.89-9.68c3.76-1.02,6.05-4.63,5.27-8.28l-8.47-39.62c-.68-3.25-4-5.36-7.42-4.71-1.2.23-2.3.78-3.18,1.6Z"/>
      <path id="Path_28" data-name="Path 28" class="cls-34" d="m324.12,175.88l-52.1,3.11c-3.18.18-5.92-2.13-6.11-5.16,0-.12-.01-.23-.01-.35v-25.18c0-3.44,2.45-6.44,5.95-7.27l40.85-9.63c4.05-.95,8.13,1.41,9.12,5.27.02.06.03.12.04.18l7.51,32.35c.7,2.97-1.26,5.92-4.38,6.59-.29.06-.59.1-.89.12"/>
      <path id="Path_29" data-name="Path 29" class="cls-14" d="m324.12,175.88l-52.1,3.11c-3.18.18-5.92-2.13-6.11-5.16,0-.12-.01-.23-.01-.35v-25.18c0-3.44,2.45-6.44,5.95-7.27l40.85-9.63c4.05-.95,8.13,1.41,9.12,5.27.02.06.03.12.04.18l7.51,32.35c.69,2.97-1.28,5.92-4.4,6.57-.28.06-.57.1-.86.12Z"/>
      <path id="Path_30" data-name="Path 30" class="cls-34" d="m75.4,224.33l-29.34,23.37c-7.37,5.9-8.33,16.37-2.14,23.39.26.29.52.57.8.85l15.72,15.53c3.41,3.38,9.05,3.49,12.6.24.23-.21.44-.42.64-.65l30.4-34.34c6.25-7.08,5.8-17.53-1.04-24.1l-3.34-3.2c-6.58-6.32-17.14-6.79-24.3-1.08"/>
      <path id="Path_31" data-name="Path 31" class="cls-14" d="m75.4,224.33l-29.34,23.37c-7.37,5.9-8.33,16.37-2.14,23.39.26.29.52.57.8.85l15.72,15.53c3.41,3.38,9.05,3.49,12.6.24.23-.21.44-.42.64-.65l30.4-34.34c6.25-7.08,5.8-17.53-1.04-24.1l-3.34-3.2c-6.57-6.32-17.13-6.79-24.3-1.09Z"/>
      <path id="Path_32" data-name="Path 32" class="cls-34" d="m80.93,297.38l34.9,18.92c2.87,1.56,6.52.61,8.16-2.13.19-.32.35-.66.47-1.01l18.26-51.44c.92-2.6-.2-5.46-2.69-6.84l-13.02-7.21c-2.38-1.32-5.4-.92-7.31.97l-40.13,39.73c-2.31,2.3-2.23,5.95.18,8.16.36.33.76.61,1.19.85"/>
      <path id="Path_33" data-name="Path 33" class="cls-14" d="m80.93,297.38l34.9,18.92c2.87,1.56,6.52.61,8.16-2.13.19-.32.35-.66.47-1.01l18.26-51.44c.92-2.6-.2-5.46-2.69-6.84l-13.02-7.21c-2.38-1.32-5.4-.92-7.31.97l-40.13,39.73c-2.31,2.3-2.23,5.96.19,8.16.36.33.76.61,1.19.84Z"/>
      <path id="Path_34" data-name="Path 34" class="cls-11" d="m125.11,129.79c1.72-1,3.62-1.7,5.6-2.06,6.08-1.78,12.41-2.7,18.77-2.74,6.45.01,12.58,2.72,16.76,7.4"/>
      <path id="Path_35" data-name="Path 35" class="cls-7" d="m186.44,133.72c3.25-3.1,7.06-5.61,11.26-7.4,2.54-.87,5.22-1.3,7.91-1.27,3.07-.01,6.11.51,8.98,1.55,5.37,2.3,10.11,5.75,13.83,10.1"/>
      <path id="Path_36" data-name="Path 36" class="cls-8" d="m173.82,143.56l3.52,21.32c.33,1.19.25,2.44-.24,3.58-.5.74-1.2,1.33-2.03,1.72-2.19,1.3-4.75,1.91-7.33,1.73-2.61-.21-4.89-1.76-5.95-4.04"/>
      <path id="Path_37" data-name="Path 37" class="cls-12" d="m196.79,143.13c1.8,3.21,5.06,5.43,8.83,6.02,3.74.54,7.56-.17,10.81-2,1.79-.9,3.31-2.22,4.42-3.84"/>
      <path id="Path_38" data-name="Path 38" class="cls-10" d="m135.94,141.54c.43,2.02,2.03,3.64,4.12,4.17,2.06.49,4.21.52,6.28.09,2.08-.24,4.09-.82,5.95-1.74,1.88-.94,3.26-2.58,3.82-4.53"/>
      <path id="Path_39" data-name="Path 39" class="cls-9" d="m126.92,188.76h15.89c.19,3.11.38,6.21.57,9.32-.02.98.21,1.95.66,2.83.86,1.06,2.09,1.81,3.46,2.11,8.67,3.13,18.11,3.79,27.16,1.89,9.14-2.03,16.71-8.13,20.33-16.39,6.78.78,13.65.53,20.35-.73"/>
    </g>
    <g id="Group_2" data-name="Group 2">
      <g class="cls-36">
        <g id="Group_1-2" data-name="Group 1">
          <path id="Path_1-2" data-name="Path 1" class="cls-35" d="m159.85,413.37l-8.5,2.07-15.42-17.78c-.8-1.08-.56-2.61.52-3.4.07-.05.15-.1.23-.15.09-.06.19-.11.29-.16l17.75-6.78c1.35-.51,2.87.11,3.48,1.42.08.18.13.38.16.58l1.5,24.21Z"/>
          <path id="Path_2-2" data-name="Path 2" class="cls-15" d="m159.85,413.37l-8.5,2.07-15.42-17.78c-.8-1.08-.56-2.61.52-3.4.07-.05.15-.1.23-.15.09-.06.19-.11.29-.16l17.75-6.78c1.35-.51,2.87.11,3.48,1.42.08.18.13.38.16.58l1.5,24.21Z"/>
          <path id="Path_3-2" data-name="Path 3" class="cls-35" d="m183.61,415.58l-9.86-4.32,2.51-21.95c.22-1.45,1.56-2.46,3.01-2.28.12.01.24.03.36.06l18.29,5.4c1.31.35,2.08,1.7,1.73,3-.02.06-.03.11-.05.17-.07.18-.16.36-.27.52l-15.71,19.41Z"/>
          <path id="Path_4-2" data-name="Path 4" class="cls-15" d="m183.61,415.58l-9.86-4.32,2.51-21.95c.22-1.45,1.56-2.46,3.01-2.28.12.01.24.03.36.06l18.29,5.4c1.31.35,2.08,1.7,1.73,3-.02.06-.03.11-.05.17-.07.18-.16.36-.27.52l-15.71,19.41Z"/>
          <path id="Path_5-2" data-name="Path 5" class="cls-35" d="m138.12,450.45l.51,2.9c.22,1.34-.42,2.68-1.6,3.36l-18.63,11.31c-1.46.74-1.72,1.75-2.32.32l-7.18-18.61c-.14-1.25,2.95-.96,4.49-1.18.16-.02.31-.04.47-.05l20.5-.88c1.78-.13,3.39,1.07,3.77,2.82"/>
          <path id="Path_6-2" data-name="Path 6" class="cls-15" d="m138.12,450.45l.51,2.9c.22,1.34-.42,2.68-1.6,3.36l-18.63,11.31c-1.46.74-1.72,1.75-2.32.32l-7.18-18.61c-.14-1.25,2.95-.96,4.49-1.18.16-.02.31-.04.47-.05l20.5-.88c1.78-.13,3.39,1.07,3.77,2.82Z"/>
          <path id="Path_7-2" data-name="Path 7" class="cls-35" d="m197.22,442.31c0,15.42-12.81,27.93-28.61,27.93s-28.61-12.5-28.61-27.93,12.81-27.93,28.61-27.93,28.61,12.5,28.61,27.93"/>
          <path id="Path_8-2" data-name="Path 8" class="cls-15" d="m168.61,414.38c15.8,0,28.61,12.5,28.61,27.93s-12.81,27.93-28.61,27.93-28.61-12.5-28.61-27.93,12.81-27.93,28.61-27.93Z"/>
          <path id="Path_9-2" data-name="Path 9" class="cls-35" d="m197.22,455.34l2.53-7.03,20.92.41c3.35,2.69-3.33,15.1-3.33,15.1-.2,1.18-4.89,10.36-6.06,9.92l-14.06-18.4Z"/>
          <path id="Path_10-2" data-name="Path 10" class="cls-15" d="m197.22,455.34l2.53-7.03,20.92.41c3.35,2.69-3.33,15.1-3.33,15.1-.2,1.18-4.89,10.36-6.06,9.92l-14.06-18.4Z"/>
          <path id="Path_11-2" data-name="Path 11" class="cls-35" d="m169.93,494.29l-9.95.02c-1.62.06-2.99-1.19-3.06-2.82,0-.06,0-.12,0-.18l1.14-16.77c.32-1.7,1.84-2.92,3.57-2.87l5.47.35c1.99-.08,3.67,1.48,3.75,3.47h0l.93,17.44c-.06.83-.78,1.45-1.61,1.39-.09,0-.17-.01-.25-.03"/>
          <path id="Path_12-2" data-name="Path 12" class="cls-15" d="m169.93,494.29l-9.95.02c-1.62.06-2.99-1.19-3.06-2.82,0-.06,0-.12,0-.18l1.14-16.77c.32-1.7,1.84-2.92,3.57-2.87l5.47.35c1.99-.08,3.67,1.48,3.75,3.47h0l.93,17.44c-.07.83-.79,1.44-1.61,1.38-.08,0-.17,0-.25-.02Z"/>
          <path id="Path_13-2" data-name="Path 13" class="cls-35" d="m193.12,487.43l-14.96,5.71c-1.18.47-2.53-.04-3.1-1.19-.1-.23-.16-.47-.18-.72l-.98-17.41c-.04-1.54,1.09-2.87,2.61-3.09l5.88-1.04c1.25-.31,2.57.16,3.35,1.19l8.3,13.77c.58.81.39,1.93-.42,2.51-.05.04-.11.07-.16.1-.11.06-.22.12-.34.17"/>
          <path id="Path_14-2" data-name="Path 14" class="cls-15" d="m193.12,487.43l-14.96,5.71c-1.18.47-2.53-.04-3.1-1.19-.1-.23-.16-.47-.18-.72l-.98-17.41c-.04-1.54,1.09-2.87,2.61-3.09l5.88-1.04c1.25-.31,2.57.16,3.35,1.19l8.3,13.77c.58.81.39,1.93-.42,2.51-.05.04-.11.07-.16.1-.11.06-.22.12-.33.16Z"/>
          <path id="Path_15-2" data-name="Path 15" class="cls-35" d="m200.28,399.12l-11.99,14.59c-.85,1.01-.71,2.52.3,3.37.02.02.04.04.06.05l2.23,1.83c1.3,1.04,3.16.97,4.38-.17l12.78-12.29c1.09-1.01,1.15-2.72.14-3.8-.07-.08-.15-.16-.24-.23l-.03-.02-4.19-3.6c-.96-.81-2.37-.76-3.29.1-.06.06-.11.11-.16.18"/>
          <path id="Path_16-2" data-name="Path 16" class="cls-35" d="m172.55,411.26h-11.5c4.17,0,0,.07,0,0l-.13-19.93c.07-1.66,1.47-2.96,3.13-2.89h8.5c.07,0,.13.05.13.12h0v22.58c0,.07-.06.13-.13.12h0"/>
          <path id="Path_17-2" data-name="Path 17" class="cls-15" d="m172.55,411.26h-11.5c4.17,0,0,.07,0,0l-.13-19.93c.07-1.66,1.47-2.96,3.13-2.89h8.5c.07,0,.13.05.13.12h0v22.58c0,.07-.06.13-.13.13h0Z"/>
          <path id="Path_18-2" data-name="Path 18" class="cls-35" d="m132.45,445.41h-20.09c-1.16.04-2.15-.86-2.19-2.03,0-.05,0-.1,0-.16l.67-7.91c.23-1.84,1.82-3.2,3.66-3.13h20.08c1.5-.05,2.75,1.11,2.81,2.61,0,.15-.02.29-.04.44l-1.4,7.45c-.37,1.64-1.84,2.78-3.52,2.74"/>
          <path id="Path_19-2" data-name="Path 19" class="cls-15" d="m132.45,445.41h-20.09c-1.16.04-2.15-.86-2.19-2.03,0-.05,0-.1,0-.16l.67-7.91c.23-1.84,1.82-3.2,3.66-3.13h20.08c1.5-.05,2.75,1.11,2.81,2.61,0,.15-.02.29-.04.44l-1.4,7.45c-.37,1.64-1.84,2.79-3.52,2.74Z"/>
          <path id="Path_20-2" data-name="Path 20" class="cls-35" d="m188.99,464.29l2.97-2.02c1.69-1.14,3.98-.83,5.3.73l.02.02,10,12.58c1.16,1.44.93,3.55-.52,4.7-.09.08-.19.15-.29.21l-2.97,2.02c-1.69,1.14-3.98.83-5.3-.73l-.02-.02-10-12.59c-1.16-1.44-.92-3.55.52-4.7.09-.08.19-.15.29-.21"/>
          <path id="Path_21-2" data-name="Path 21" class="cls-35" d="m135.66,428.67l-17-1.02c-1.4-.03-2.51-1.19-2.48-2.59,0-.01,0-.02,0-.03.02-.27.09-.54.21-.79l4.94-10.77c.74-1.46,2.46-2.11,3.98-1.5.2.08.39.17.57.29l14.12,9.07c1.01.61,1.41,1.89.92,2.97l-.87,1.89c-.81,1.64-2.54,2.63-4.37,2.48"/>
          <path id="Path_22-2" data-name="Path 22" class="cls-15" d="m135.66,428.67l-17-1.02c-1.4-.03-2.51-1.19-2.48-2.59,0-.01,0-.02,0-.03.02-.27.09-.54.21-.79l4.94-10.77c.74-1.46,2.46-2.11,3.98-1.5.2.08.39.17.57.29l14.12,9.07c1.01.61,1.41,1.89.92,2.97l-.87,1.89c-.81,1.64-2.54,2.63-4.37,2.48Z"/>
          <path id="Path_23-2" data-name="Path 23" class="cls-35" d="m148.45,417.91l-3.47,2.31-20.75-12.45c-1.1-.62-1.5-2.01-.88-3.12.04-.07.09-.15.14-.21.1-.14.21-.27.34-.38l5.79-5.27c1.21-1.07,3.02-1.06,4.22.01.12.11.23.23.33.36l14.29,18.75Z"/>
          <path id="Path_24-2" data-name="Path 24" class="cls-15" d="m148.45,417.91l-3.47,2.31-20.75-12.45c-1.1-.62-1.5-2.01-.88-3.12.04-.07.09-.15.14-.21.1-.14.21-.27.34-.38l5.79-5.27c1.21-1.07,3.02-1.06,4.22.01.12.11.23.23.33.36l14.29,18.75Z"/>
          <path id="Path_25-2" data-name="Path 25" class="cls-35" d="m209.93,410.57l-12.88,11.67c-1.13.98-1.37,2.64-.57,3.91l1.9,3.01c.87,1.3,2.47,1.89,3.97,1.48l12.3-3.2c1.24-.27,2.05-1.49,1.81-2.74l-2.9-13.1c-.29-1.12-1.41-1.8-2.54-1.56-.41.07-.79.26-1.1.53"/>
          <path id="Path_26-2" data-name="Path 26" class="cls-15" d="m209.93,410.57l-12.88,11.67c-1.13.98-1.37,2.64-.57,3.91l1.9,3.01c.87,1.3,2.47,1.89,3.97,1.48l12.3-3.2c1.24-.27,2.05-1.49,1.81-2.74l-2.9-13.1c-.3-1.12-1.42-1.8-2.54-1.56-.4.07-.78.25-1.09.53Z"/>
          <path id="Path_27-2" data-name="Path 27" class="cls-35" d="m219.7,444.9l-17.86,1.03c-1.05.1-1.98-.66-2.09-1.71v-8.44c.04-1.18.88-2.17,2.04-2.4l14-3.19c1.34-.34,2.71.43,3.13,1.74,0,.02.01.04.01.06l2.57,10.7c.21.99-.43,1.95-1.41,2.16-.03,0-.06.01-.09.02-.1.02-.2.03-.3.04"/>
          <path id="Path_28-2" data-name="Path 28" class="cls-15" d="m219.7,444.9l-17.86,1.03c-1.05.1-1.98-.66-2.09-1.71v-8.44c.04-1.18.88-2.17,2.04-2.4l14-3.19c1.34-.34,2.71.43,3.13,1.74,0,.02.01.04.01.06l2.57,10.7c.2.99-.44,1.95-1.43,2.15-.03,0-.05,0-.08.01-.1.02-.2.03-.3.04Z"/>
          <path id="Path_29-2" data-name="Path 29" class="cls-35" d="m134.46,460.92l-10.06,7.73c-2.32,1.69-2.82,4.94-1.13,7.26.12.17.25.33.4.48.09.1.18.19.27.28l5.39,5.14c1.21,1.12,3.07,1.15,4.32.08.08-.07.15-.14.22-.22l10.42-11.36c2.1-2.24,2-5.76-.25-7.87-.04-.03-.07-.07-.11-.1l-1.14-1.06c-2.33-2.09-5.82-2.24-8.33-.36"/>
          <path id="Path_30-2" data-name="Path 30" class="cls-15" d="m134.46,460.92l-10.06,7.73c-2.32,1.69-2.82,4.94-1.13,7.26.12.17.25.33.4.48.09.1.18.19.27.28l5.39,5.14c1.21,1.12,3.07,1.15,4.32.08.08-.07.15-.14.22-.22l10.42-11.36c2.1-2.24,2-5.76-.25-7.87-.04-.03-.07-.07-.11-.1l-1.14-1.06c-2.33-2.09-5.82-2.24-8.33-.36Z"/>
          <path id="Path_31-2" data-name="Path 31" class="cls-35" d="m136.36,485.07l11.96,6.26c.97.52,2.18.22,2.79-.7.07-.11.12-.22.16-.33l6.26-17.02c.31-.88-.09-1.85-.92-2.26l-4.46-2.38c-.82-.44-1.82-.31-2.51.32l-13.75,13.14c-.73.67-.78,1.81-.1,2.54.05.06.11.11.16.16.12.11.26.2.41.28"/>
          <path id="Path_32-2" data-name="Path 32" class="cls-4" d="m151.5,429.66c.6-.33,1.25-.56,1.92-.68,2.09-.59,4.26-.89,6.43-.9,2.17-.01,4.25.87,5.74,2.45"/>
          <path id="Path_33-2" data-name="Path 33" class="cls-3" d="m172.52,430.96c1.13-1.04,2.44-1.87,3.86-2.45.87-.29,1.79-.43,2.71-.42,1.05,0,2.09.17,3.08.51,1.81.74,3.43,1.88,4.74,3.34"/>
          <path id="Path_34-2" data-name="Path 34" class="cls-2" d="m168.19,434.21l1.21,7.05c.11.39.08.81-.08,1.18-.18.25-.42.45-.69.57-.76.43-1.64.63-2.51.57-.87-.05-1.64-.56-2.04-1.34"/>
          <path id="Path_35-2" data-name="Path 35" class="cls-13" d="m176.06,434.07c.66,1.09,1.77,1.82,3.03,1.99,1.27.18,2.57-.05,3.71-.66.6-.29,1.13-.73,1.51-1.27"/>
          <path id="Path_36-2" data-name="Path 36" class="cls-6" d="m155.21,433.54c.17.69.72,1.23,1.41,1.38.71.16,1.44.17,2.15.03.71-.08,1.4-.27,2.04-.58.63-.29,1.11-.84,1.31-1.5"/>
          <path id="Path_37-2" data-name="Path 37" class="cls-5" d="m152.12,449.16h5.45c.07,1.03.13,2.05.19,3.08,0,.33.07.65.23.94.31.36.73.61,1.19.7,2.99,1.04,6.21,1.25,9.31.62,3.05-.61,5.63-2.61,6.97-5.42,2.32.26,4.67.18,6.97-.24"/>
        </g>
      </g>
    </g>
    <g id="N" class="cls-28">
      <text class="cls-18" transform="translate(143.48 406.05)"><tspan x="0" y="0">N</tspan></text>
    </g>
    <g id="E" class="cls-28">
      <text class="cls-29" transform="translate(165.26 403.34)"><tspan x="0" y="0">E</tspan></text>
    </g>
    <g id="E-2" class="cls-28">
      <text class="cls-22" transform="translate(181.91 405.08)"><tspan x="0" y="0">E</tspan></text>
    </g>
    <g id="L" class="cls-28">
      <text class="cls-21" transform="translate(196.32 410.81)"><tspan x="0" y="0">L</tspan></text>
    </g>
    <g id="T" class="cls-28">
      <text class="cls-16" transform="translate(202.7 427.57)"><tspan x="0" y="0">T</tspan></text>
    </g>
    <g id="A" class="cls-28">
      <text class="cls-26" transform="translate(207.12 440.9)"><tspan x="0" y="0">A</tspan></text>
    </g>
    <g id="K" class="cls-28">
      <text class="cls-19" transform="translate(208.03 457.13)"><tspan x="0" y="0">K</tspan></text>
    </g>
    <g id="E-3" class="cls-28">
      <text class="cls-32" transform="translate(196.64 474.74)"><tspan x="0" y="0">E</tspan></text>
    </g>
    <g id="Group_4" data-name="Group 4">
      <g class="cls-37">
        <g id="Group_3" data-name="Group 3">
          <g id="Y" class="cls-28">
            <text class="cls-24" transform="translate(174.87 489.26)"><tspan x="0" y="0">Y</tspan></text>
          </g>
          <g id="O" class="cls-28">
            <text class="cls-23" transform="translate(167.77 484.18) rotate(-94.13)"><tspan x="0" y="0">O</tspan></text>
          </g>
          <g id="U" class="cls-28">
            <text class="cls-17" transform="translate(146.34 482.07) rotate(6.37)"><tspan x="0" y="0">U</tspan></text>
          </g>
        </g>
      </g>
    </g>
    <g id="T-2" class="cls-28">
      <text class="cls-31" transform="translate(129.56 476)"><tspan x="0" y="0">T</tspan></text>
    </g>
    <g id="R" class="cls-28">
      <text class="cls-20" transform="translate(125.26 423.09)"><tspan x="0" y="0">R</tspan></text>
    </g>
    <g id="E-4" class="cls-28">
      <text class="cls-25" transform="translate(121.16 441.36)"><tspan x="0" y="0">E</tspan></text>
    </g>
    <g id="E-5" class="cls-28">
      <text class="cls-27" transform="translate(132.59 410.81)"><tspan x="0" y="0">E</tspan></text>
    </g>
    <g id="H" class="cls-28">
      <text class="cls-30" transform="translate(122.56 457.13)"><tspan x="0" y="0">H</tspan></text>
    </g>
  </g>
</svg>