<?xml version="1.0" encoding="UTF-8"?><svg id="Layer_2" xmlns="http://www.w3.org/2000/svg" width="213.51mm" height="204.7mm" xmlns:xlink="http://www.w3.org/1999/xlink" viewBox="0 0 605.22 580.24"><defs><style>.cls-1{fill:url(#linear-gradient);}.cls-2,.cls-3{fill:#f8962a;}.cls-4{fill:#cd4a8e;}.cls-5{fill:#761313;}.cls-6{fill:url(#radial-gradient);}.cls-7,.cls-8,.cls-9,.cls-10,.cls-11,.cls-12,.cls-13,.cls-14,.cls-3{isolation:isolate;}.cls-8{fill:#334c9e;}.cls-9{fill:#82205e;}.cls-10{fill:#a73063;}.cls-11{fill:#ee6528;}.cls-12{fill:#fef9ee;}.cls-13{fill:#ed2424;}.cls-14{fill:#faaf2c;}</style><radialGradient id="radial-gradient" cx="848.52" cy="787.49" fx="848.52" fy="787.49" r="486.83" gradientTransform="translate(-295.89 -134.18) scale(.71 .54)" gradientUnits="userSpaceOnUse"><stop offset="0" stop-color="#efb34a"/><stop offset=".15" stop-color="#efb34a"/><stop offset=".3" stop-color="#f0a33f"/><stop offset=".31" stop-color="#f19536"/><stop offset=".32" stop-color="#f2882e"/><stop offset=".33" stop-color="#f3812a"/><stop offset=".36" stop-color="#f47f29"/><stop offset=".4" stop-color="#f38031"/><stop offset=".46" stop-color="#f18547"/><stop offset=".54" stop-color="#ee8c6b"/><stop offset=".56" stop-color="#ee8f77"/><stop offset=".56" stop-color="#ed8f78"/><stop offset=".65" stop-color="#d5a49e"/><stop offset=".74" stop-color="#c3b4bb"/><stop offset=".82" stop-color="#b6c0d1"/><stop offset=".91" stop-color="#aec7dd"/><stop offset=".99" stop-color="#accae2"/></radialGradient><linearGradient id="linear-gradient" x1="2393.31" y1="-5579.28" x2="2589.02" y2="-5579.28" gradientTransform="translate(-88.85 1190.82) scale(.16)" gradientUnits="userSpaceOnUse"><stop offset="0" stop-color="#f15a2c"/><stop offset=".18" stop-color="#f15d2c"/><stop offset=".31" stop-color="#f26630"/><stop offset=".43" stop-color="#f47635"/><stop offset=".55" stop-color="#f78d3c"/><stop offset=".65" stop-color="#faab46"/><stop offset=".67" stop-color="#fbb048"/></linearGradient></defs><g id="Layer_4"><rect class="cls-6" width="605.22" height="580.24"/><path class="cls-2" d="m219.8,229.88c-.56-1.26-2.17-2.03-3.02-2.43-2.9-1.37-4.86-.35-8.42-.87-1.54-.22-1.81-.5-9.72-4.52-5.93-3.01-7.06-3.5-8.21-3.13-1.83.6-1.64,2.72-2.81,6.6-.57,1.9-.5,1.01-6.69,12.86-4.63,8.86-4.06,8.19-4.75,9.21-.99,1.46-1.31,2.25-1.94,3.82-.63,1.57-.95,2.37-.65,2.78,1.02,1.42,5.24-.52,10.15,1.22,1.72.61,1.59.98,3.24,1.39,2.79.69,4.15-.14,6.69.52,1.78.47,1.57,1,3.67,1.91,3.04,1.32,7.61,2.01,8.85.69.88-.93-.5-2.21-1.08-4.69-.74-3.21.48-5.83,1.73-8.51,4.49-9.63,14.65-13.03,12.96-16.85Z"/><path class="cls-3" d="m349.38,185.77c-.31-1.82.39-3.62,1.17-5.64,1.13-2.91,2.09-3.2,3.8-6.58,1.33-2.64.66-2.3,2.63-7.05,1.84-4.43,2.26-4.34,2.92-6.82.73-2.72.42-3.56,1.46-4.23,1.71-1.1,3.43.61,8.48.47,3.58-.1,4.79-1.01,8.18-.47,1.21.19,2.64.56,3.22.71,3.07.79,3.09,1.12,4.68,1.41,2.94.54,3.29-.52,6.43,0,1.68.28,1.49.57,4.38,1.18,1.54.32,3.8.71,3.8.71h0s2.45.25,3.22.94c1.27,1.15-1.18,4.45-2.05,5.64-2.84,3.9-4.75,8.2-7.31,12.23-4.03,6.33-5.52,8.91-6.43,12.7-.46,1.92-.19,1.74-.58,2.82-.71,1.95-2.02,3.74-11.11,10.58-1.52,1.15-1.79,1.33-2.34,1.41-3.47.53-5.42-4.86-12.28-10.35-6.68-5.35-11.59-5.66-12.28-9.64Z"/><path class="cls-8" d="m260.53,185.91c18.02-4.96,30.33,9.4,45.48,3.11,7.1-2.95,9.06-8.04,17.42-8.56,3.59-.23,6.89.7,13.5,2.56,9.02,2.53,10.41,4.51,18.26,5.75,2.87.45,4.05.41,5.96,1.28,4.23,1.93,4.9,5.12,7.54,8.3,3.57,4.29,8.15,5.45,11.91,7.35,15.72,7.91,20.37,30.26,20.64,42.48.12,5.47-.63,9.32-1.99,16.29-2.99,15.35-8.68,28.21-9.93,30.98-5.67,12.59-9.36,16.14-8.34,23.95.57,4.31,2.28,7.69,4.37,11.82,3.71,7.33,6.63,13.1,13.1,18.21,2.04,1.61,4.89,3.52,6.35,7.03.52,1.24.87,2.72.79,6.39-.08,3.61-.16,7.4-1.59,11.82-2.47,7.66-7.57,12.84-10.72,15.97-7.25,7.21-14.84,11.03-22.23,14.69-14.38,7.11-26.98,10.11-35.73,12.14-11.33,2.63-18.06,4.19-27.79,4.15-12.57-.04-22.13-2.71-29.38-4.79-8.81-2.53-14.68-5.23-26.2-10.54-14.69-6.77-11.08-6.66-20.64-10.54-3.13-1.27-5.39-2.04-7.15-4.15-1.96-2.36-1.78-4.58-1.59-13.73.12-5.79.18-8.72,0-9.9-.87-5.85-3-7.58-4.37-12.46-1.63-5.84.34-7.27.4-15.01.06-7.99-2.01-9.09-5.56-25.55-1.51-7.01-2.26-10.51-2.78-15.33-1.36-12.75.52-17.5-2.78-27.79-1.53-4.77-2.07-4.16-3.18-8.3-.7-2.62-3.18-12.36.4-22.04,1.66-4.49,3.14-4.96,15.09-18.21,13.21-14.64,12.7-15.51,19.45-21.72,10.11-9.3,15.16-13.95,21.27-15.63Z"/><path class="cls-12" d="m255.7,213.59c-7.32,1.1-8.81,8.07-18.62,23.75-9.17,14.66-13.84,18.1-15.44,28.14-.17,1.05-.03.48-.45,10.23,0,0-.55,12.73-1.36,25.94-1.39,22.64-2.06,22.45-.91,25.58,1.59,4.34,5.91,12.94,10.9,19.37.99,1.28,3.9,4.9,5.45,10.23.66,2.28.8,3.92.91,4.75.93,7.21,7.51,16.02,14.99,20.83,4.8,3.09,11.74,4.17,25.44,6.21,20.25,3.02,31.46,4.69,45.88,2.92,10.04-1.23,21.58-4.13,24.07-4.75,5.26-1.32,7.89-1.98,9.08-2.56,4.18-2.03,9.45-6.37,14.54-29.6,1.81-8.26,3.17-14.48,3.63-23.39.58-11.17-.95-13.36-.45-27.41.36-10.18,1.18-9.73,1.36-19,.12-5.87.24-14.73-1.82-25.94-1.49-8.13-2.64-14.38-6.81-22.29-4.22-8-8.94-12.79-13.63-17.54-8.23-8.35-12.1-9.29-14.54-9.5-3.81-.33-7.82.82-11.36,1.83-4.54,1.3-4.17,1.89-9.08,3.29-1.17.33-5.64,1.57-11.81,2.19-.63.06-2.89.28-6.36.37-3.76.09-7.99,0-15.9-.73-5.12-.47-5.93-.67-16.35-1.83-7.14-.79-10.73-1.19-11.36-1.1Z"/><path class="cls-11" d="m367.96,249.65c-1.99-1.25-4.34-.42-12.01-.71-2.36-.09-.49-.1-3.81-.35-1.78-.13-2.52-.14-2.93-.59-.44-.48-.13-1.06.15-2.24.17-.74.94-3.97-.15-4.48-.53-.25-1.24.27-3.07,1.18-1.59.79-3.88,1.93-6.15,2.47-.75.18-2.61.24-6.3.35-2.68.08-4.01.12-5.86.12-4.21-.01-6.32-.02-7.17-.35-4.02-1.57-4.39-6.42-5.71-6.24-.6.08-.42,1.08-1.76,3.06-.72,1.07-1.66,2.43-3.37,2.94-.89.27-1.52.17-2.64.12-1.16-.05-3.67.28-8.64.94-3.19.42-3.31.47-5.27.71-3.61.43-5.44.64-6.3.35-3.08-1.03-3.28-4.43-4.98-4.36-1.22.05-1.21,1.81-3.22,2.47-1.36.45-2.39,0-4.68-.35-1.58-.24-3.2-.24-6.44-.24-7.51,0-9.44,1.45-11.57.12-1.8-1.13-1.48-2.85-2.93-3.06-1.65-.24-2.13,1.97-4.98,2.94-3.69,1.26-6.75-1.12-9.37.47-.97.59-1.32,1.38-1.61,2-3.06,6.52-11.65,13.02-14.35,15.05-.16.12-.99,1.4-1.23,3.5-.25,2.11-.24,4.86-.25,5.29-.04,1.05.24-.04.33.18.02.06-1.09,5.17-1.21,9.23-.16,5.46-.18,11.33-.52,13.7-1.86,13.2-.33,14.88-.29,15.17.23,2.19-1.77,8.64-1.44,14.81.07,1.37.33,2.37,1.06,4.19,0,0,.78,3.21,3.01,6.6.19.29-.25-.63-.06-.4,1.51,1.73,1.65-5.33-.12-.7-.49,1.28,4.43,8.22,5.04,9.48.8,1.67-1.02-4.32,0,0,.16.67,0,0,0,0,1.06-.96,1.54-2.05,3.9-2.74,1.72-.5,3.48-1.51,4.75-1.43.4.02,2.46,1.52,3.45,2.55,1.26,1.31,1.98,2.47,2.52,4.19,1.58,4.98,1.93,3.78,3.36,8.65.91,3.11,1.36,4.66,1.51,6.62.35,4.67-1.01,7.1.84,8.38.77.53,1.35.36,4.03.54,1.87.13,5.17.76,11.76,2.03,2.63.51,4.54.9,6.72,1.35,6.61,1.37,9.91,2.05,10.59,2.3,8.23,2.98,10.41,11.5,11.76,11.08,1.32-.41-2.06-8.14.84-9.46.68-.31,1.4-.13,2.18,0,3.24.56,4.91-.06,11.09-.81,10.04-1.23,16.18-1.98,17.81.14.98,1.26.84,4.19.84,4.19,0,0,.71,1.33,1.34,1.35.56.02,1-.99,1.68-2.43,1.2-2.57,1.81-3.87,2.18-4.19.88-.77,2.16-.99,7.39-.81,7.81.26,9.99.91,11.59-.27,1.22-.89.56-1.71,1.34-4.19,1.75-5.52,6.5-6.12,8.23-11.76.46-1.49.87-2.83.34-4.46-.95-2.9-3.82-3.37-4.87-6.08-.67-1.71-.61-4.3,1.01-5.95,3.75-3.83,13.25.16,16.8-3.38,1.17-1.16,2.44-6.31,2.66-10.44.05-.9-.04-1.66-.07-2.47-.01-.33-.02-.67-.03-1.04-.03-.76-.03-.76-.03-.76,0-1.32.02-.73-.16-2.8-.07-.8-.13-1.96-.24-3.64-.5-8.04.37-10.64,1.7-20.53,1.45-10.84.31-20.01-.96-25.21-.85-3.51-1.27-11.61-1.27-11.61-1.23-3.97-2.12-.78-3.18-4.23-1.78-5.81-1.5-5.34-2.66-6.07Z"/><path class="cls-10" d="m243.12,347.36c3.22-4.97,8.5-5.61,9.16-5.84,3.01-1.05,10.08-2.6,15.2-2.75,9.21-.27,23.72,2.73,25.98-.2.21-.28.8-1.04.56-1.81-.34-1.1-2.11-1.35-2.06-1.65.09-.52,5.45.67,10.1-.16,5.12-.92,5.16-3.52,12.91-8.08,7.24-4.26,8.11-2.52,14.03-6.6,4.48-3.09,5.67-5.25,9.54-5.77,3.91-.53,7.57,1.02,8.23,1.32,4.26,1.88,4.62,4.36,6.55,4.12,1.89-.23,2.49-2.74,7.67-9.4.85-1.09,1.43-1.79,2.43-1.98,1.54-.29,2.67.88,7.3,4.45,3.5,2.7,4.11,2.99,4.68,4.12,1.15,2.28.4,4.57.55,6.22.06.7.11,1.32.1,1.91,0,.52.03.98.04,1.39,0,.21-.03.57.06,1.51.33,3.48.76,11.06-1.62,12.87-2.29,1.74-4.25-.36-9.42,1.33-2.03.66-5.97,2.01-7.48,5.11-.66,1.36-.46,2.26-1.31,2.64-1.54.69-3.28-1.75-7.11-2.97-1.17-.37-1.87-.42-8.98-.33-5.95.07-8.94.12-9.54.33-1.69.6-2.39,1.32-8.79,7.92-3.22,3.31-4.84,4.97-5.61,5.11-4.51.82-6.68-5.87-15.53-8.41-1.31-.38-4.13-.53-9.73-.82-6.93-.36-10.9-.57-17.59-.66-18.18-.24-20.81.89-22.26,1.65-1.64.85-4.34,2.57-5.05,1.98-.22-.18-.84-.27-1.41-1.14-.27-.41-.51-1.44-.73-1.9-.75-1.55-1.04-3.22-.85-3.51Z"/><path class="cls-4" d="m244.54,353.62c-.2.94-.56,1.16.4,3.83.3.84,1.6,3.46,1.45,6.73-.2,4.19-.08,5.5,1.14,6.58,1.24,1.08,2.94.3,7.48.75,2.61.26,2.22.53,8.23,1.8,5.32,1.12,7.98,1.69,9.91,1.8,1.35.08,2.53.26,3.64.49,1.18.25,2.3.56,3.49.91,1.58.46,2.05,1.2,2.59,1.76,5.4,5.65,7.93,8.85,8.97,9.32.28.13.55-.27.54-.77,0-.33-.05-.73-.04-.82.1-1.72-.62-4.41,1-6.23,1.08-1.23,3.4-1.32,8.57-1.93,1.93-.23,4.23-.63,6.84-.89,1.33-.14,5.67-.33,13.38-.04.69.03,1.97.04,2.13,1.03.06.4.38.95.44,1.4.05.36.05.72.12,1.12.09.48.01.73.02,1.13,0,.65,1.23,1.41,1.39,1.44.27.04,1.12-1.07,1.32-1.85.11-.42.55-1.06.74-1.58.23-.6.64-1.28.93-1.93s.55-1.34,1.34-1.7c1.09-.5,2.22-.49,3.91-.47,1.12.01,2.44-.06,4.31.06,6.84.45,8.11.88,10.03-.16,2.26-1.23,1.09-3.32,3.25-7.35.75-1.4,1.98-2.34,2.76-3.12,1.97-1.97,3.42-2.69,4.34-5.75.25-.83,1.59-5.25-1.12-7.67-.82-.73-1.73-1.03-2.24-2.11-.79-1.65.54-2.58.19-3.91-.69-2.59-6.93-3.55-10.28-4.06-4.62-.71-7.87-1.21-10.28.3-1.99,1.24-1.62,2.74-4.3,4.06-1.94.96-2.69.45-4.49,1.5-1.37.81-1.03,1.16-3.55,3.61-2.02,1.97-3.05,2.52-3.93,2.86-.69.27-1.66.65-2.8.6-2.33-.09-3.87-1.9-4.86-2.86-2.18-2.11-3.1-1.52-16.45-6.77-6.97-2.74-6.03-2.63-7.1-2.86-4.08-.86-6.63-.13-19.26,2.71-4.27.96-8.67,1.93-14.58,3.76-6.15,1.9-9.11,3.24-9.53,5.26Z"/><path class="cls-14" d="m305.1,329.28c-3.72-.34-2.86-.02-39.38.06-6.34.01-12.49.04-20.67-.1-2.71-.05-5.56-.11-8.63-.2-4.69-.14-14.83-.21-17.12-.98-1.3-.44,1.52,3.33,3.13,6.9,2.72,6.01,6.45,10.29,7.37,11.66,1.31,1.94,2.23-1.44,4.87-2.21.49-.14,2.64-.17,3.16-.42.4-.18.56-.83.88-.7.84.34,2.49,2.15,1.95.85-.21-.5-.22.82.26,1.26.73.69,1.11.34,1.43,1.87.11.55.73,2.28,1.01,2.36.45.13,5.78-2.44,4.99-3.91s6.82-1.1,6.99-3.02c.48-5.12,6.16-.09,10.04-1.83,6.67-2.98,12.78.51,14.55.79,1.1.17.16-.66,6.98,0,.56.05,5.36,1.2,6.03.22.32-.46,3.23-.81,3.12-1.38-.03-.16,1.34-.23.81-1.12-.23-.39-1.04-.95-1.17-1.5-.16-.73-1.87-.97-1.78-.99.84-.26,2.01-.04,2.01-.06,0-.04.13.18,3.37.19.76,0,2.12-.01,3.57-.13,1.97-.16,4.9-.51,5.7-2.11.14-.29.6-.14,1.3-.76.71-.64,3.07-1.54,3.57-2.98.17-.48,1.04-.5.71-.53-2.76-.24-7.36-1.05-9.05-1.21Z"/><path class="cls-9" d="m319.75,324.07c.61.81-1.75.84-4.78,2.8-1.62,1.04,1.6,4-3.22,5.1-9.05,2.06-15.92,1.35-15.92,1.35-14.5-6.92-26.61-2.93-41.55-3.82-7.17-.42-18.18,1.84-24.57-.57-.7-.26-8.75.57-10.39-.87-3.52-3.09-1.49-7.18-.75-11.93.59-3.75.78-7.32.91-9.01.23-3.01,3.57-3.67,7.61-3.43,2.22.13,5.67-.43,7.32,1.28,7.49,7.74,15.63,5.72,16.05,6.88,2.41,6.71,11.93,9.03,16.07,7.87,3.22-.91,5.24-4.94,8.39-11.24,1.78-3.57,2.94-2.15,3.61-.98,1.33,2.33,2.89-1.42,6.87-.15,2.68.85,4.12,6.54,6.17,4.16.8-.93,1.99.25,4.12,3.09,1.51,2.01,3.17,2.27,3.55,3.09,2.77,6.09,15.23,9.73,15,5.48-.1-1.96,3.88-1.27,5.52.93Z"/><ellipse class="cls-1" cx="317.39" cy="280.99" rx="15.96" ry="12.84"/><path class="cls-13" d="m328.98,282.18c-.76,3.49-3.32,7.31-7.98,6.42-4.29-.82-6.87-3.16-7.98-6.42s4.41-5.8,7.98-6.42c4.31-.75,8.76,2.85,7.98,6.42Z"/><path class="cls-2" d="m231.11,245.01c2.24-3.27,3.82-7.71,6.93-5.28,6.18,4.82,13.65,6.91,15.16,8.28,15.44,13.93,32.61,15.22,50.12,20.4,5.28,1.56,4.73,5.64,5.23,7.94.84,3.81-9.11,3.91-19.97,1.55-31.31-6.82-55.13-8.39-66.95-12.41-.81-.28-4.55-.95-.86-5.62,6.25-7.9,8.52-12.2,10.34-14.85Z"/><path class="cls-2" d="m306.32,287.64l-3.51-1.68c-.12-.06-.25-.09-.39-.08l-100.92,2.85s-.07,0-.11.01l-45.68,7.41c-2.39.39-4.03,2.63-3.67,5.03l2.5,16.48c.07.47.52.79.99.7l150.59-29.15c.79-.15.93-1.23.2-1.58Z"/><path class="cls-2" d="m309.73,292.37l-12.52,3.85-10.98,8.99c-.84.68-.92,1.93-.19,2.73l3.47,3.74c.52.56,1.39.62,1.98.12l12.69-10.67,5.55-8.77Z"/><polygon class="cls-2" points="323.79 292.14 319.04 292.82 300.54 323.82 307.66 326.11 319.04 326.11 327.58 320 323.79 292.14"/><path class="cls-2" d="m434.77,356.45l11.8-18.36c.29-.45.1-1.04-.38-1.25l-114.4-49.47c-.26-.11-.57-.09-.81.07l-2.26,1.46c-.53.34-.52,1.11,0,1.45l104.87,66.37c.4.25.93.14,1.18-.26Z"/><polygon class="cls-2" points="333.04 278.84 375.07 271.56 373.21 257.47 328.91 271.59 333.04 278.84"/><polygon class="cls-2" points="320.77 270.25 327.85 245.41 341.17 244.69 349.22 241.28 363.46 250.19 320.77 270.25"/><polygon class="cls-2" points="314.71 271.4 314.71 248.12 309.5 243.54 302 245.42 307.23 271.09 314.71 271.4"/><path class="cls-2" d="m248.56,296c.86-.09,1.8-.21,2.65-.03s1.5.81,2.49.75c.9-.05,1.6-.53,2.21-1.01.27-.21.52-.43.87-.56.19-.07.4-.12.49-.05.83.64,2.08-.37,1.26-1.01-.77-.59-1.81-.53-2.7-.15-.77.33-1.23,1.02-2,1.31-.32.12-.53-.01-.81-.16-.42-.21-.85-.39-1.33-.5-1.02-.22-2.09-.13-3.12-.02-.48.05-.89.29-.89.71,0,.35.41.77.89.71h0Z"/><g class="cls-7"><path class="cls-5" d="m272.82,270.76c1.06-.56,2.58-.23,3.15.68.12.19.52.24.7.07.86-.82,2.22-1.22,3.53-.98.56.1.79-.59.24-.69-1.6-.28-3.32.15-4.39,1.17l.7.07c-.78-1.24-2.92-1.7-4.37-.94-.48.25-.03.87.45.62h0Z"/></g><g class="cls-7"><path class="cls-5" d="m287.07,261.05c1.23-.24,2.53.27,3.1,1.17.17.27.58.19.77,0,.85-.89,2.28-1.31,3.65-1.18.57.06.56-.66,0-.71-1.7-.17-3.38.44-4.41,1.53h.77c-.75-1.19-2.5-1.81-4.1-1.5-.56.11-.32.8.24.69h0Z"/></g><g class="cls-7"><path class="cls-5" d="m279.75,278.63c1.02-.46,2.52-.08,2.98.81.13.25.63.4.81.09.76-1.34,2.69-2.12,4.48-1.74.55.12.79-.57.24-.69-2.15-.45-4.55.44-5.48,2.07l.81.09c-.67-1.32-2.71-1.94-4.28-1.23-.5.22-.05.84.45.62h0Z"/></g><g class="cls-7"><path class="cls-5" d="m263.21,274.54c1.21-.12,3.22-.31,3.81.85l.74-.35c-.3-.31.07-.78.4-.96.58-.31,1.37-.25,2.02-.22.57.03.57-.69,0-.71-.97-.04-2.11-.05-2.84.55-.62.51-.78,1.28-.22,1.85.27.27.91-.02.74-.35-.32-.62-.93-1.04-1.71-1.28-.94-.29-1.98-.19-2.96-.1-.24.02-.44.15-.44.36,0,.18.21.38.44.36h0Z"/></g><g class="cls-7"><path class="cls-5" d="m238.64,272.33c1.28-1.06,3.58-1.05,4.84.03.34.29.8-.03.74-.35-.08-.49.38-.94.9-1.14.6-.24,1.31-.23,1.96-.18.57.04.57-.67,0-.71-.94-.07-1.96-.01-2.74.45-.72.42-1.09,1.07-.97,1.78l.74-.35c-1.59-1.35-4.49-1.36-6.09-.03-.4.33.23.84.63.51h0Z"/></g><g class="cls-7"><path class="cls-5" d="m241.1,290.16c1.11-.27,2.31.01,3.07.72.18.17.57.12.7-.07.51-.79,1.52-1.27,2.63-1.25.57.01.57-.7,0-.71-1.4-.03-2.75.61-3.39,1.6l.7-.07c-.96-.88-2.54-1.24-3.93-.9-.55.13-.31.82.24.69h0Z"/></g><g class="cls-7"><path class="cls-5" d="m234.01,282.8c.86-.3,1.99-.04,2.53.58.26.3.78.18.83-.18.11-.83,1.2-1.53,2.23-1.41.24.03.47-.05.55-.25.06-.17-.07-.41-.31-.44-1.64-.18-3.18.77-3.36,2.1l.83-.18c-.84-.96-2.41-1.31-3.75-.84-.22.08-.27.34-.16.49.13.18.39.21.61.13h0Z"/></g><g class="cls-7"><path class="cls-5" d="m262.48,291.61c.87-.31,2.03.13,2.34.84.16.37.88.33.87-.09-.02-1.2,1.39-2.2,2.86-2.07.24.02.44-.18.44-.36,0-.21-.21-.34-.44-.36-1.94-.17-3.78,1.23-3.75,2.79l.87-.09c-.51-1.19-2.22-1.77-3.64-1.27-.22.08-.27.34-.16.49.13.18.39.2.61.13h0Z"/></g></g></svg>