<?xml version="1.0" encoding="UTF-8"?><svg id="Layer_2" xmlns="http://www.w3.org/2000/svg" width="40.81mm" height="12.14mm" viewBox="0 0 115.68 34.41"><defs><style>.cls-1{fill:#231f20;}</style></defs><g id="Layer_8"><path class="cls-1" d="m18.21,8.82c-5.46,2.02-10.93,4.05-16.39,6.07-.95.35-1.65,1.03-1.79,2.08-.13.97.32,2,1.19,2.49,5.55,3.15,11.36,5.83,17.35,8.05,1.81.67,3.58-1.36,3.08-3.08-1.05-3.57-1.17-7.26-.33-10.84.3-1.27-.4-2.77-1.75-3.08s-2.75.38-3.08,1.75c-1.06,4.45-.97,9.11.33,13.5l3.08-3.08c-5.56-2.07-10.95-4.59-16.15-7.54l-.6,4.57c5.46-2.02,10.93-4.05,16.39-6.07,1.27-.47,2.13-1.69,1.75-3.08-.33-1.22-1.8-2.22-3.08-1.75h0Z"/><path class="cls-1" d="m19.98,20.85h21.16c3.22,0,3.22-5,0-5h-21.16c-3.22,0-3.22,5,0,5h0Z"/><path class="cls-1" d="m52.72,2.74c-.1,7.42.22,14.83.96,22.21.16,1.59,2.66,1.6,2.5,0-.74-7.38-1.06-14.8-.96-22.21.02-1.61-2.48-1.61-2.5,0h0Z"/><path class="cls-1" d="m46,2.5c5.81.05,11.6.62,17.31,1.73,1.57.31,2.24-2.1.66-2.41C58.05.67,52.03.05,46,0c-1.61-.01-1.61,2.49,0,2.5h0Z"/><path class="cls-1" d="m62.33,17.46c-.06,2.62-.12,5.23-.18,7.85-.02.65.59,1.28,1.25,1.25s1.23-.55,1.25-1.25c.06-2.62.12-5.23.18-7.85.02-.65-.59-1.28-1.25-1.25s-1.23.55-1.25,1.25h0Z"/><path class="cls-1" d="m63.69,12.31c1.61,0,1.61-2.5,0-2.5s-1.61,2.5,0,2.5h0Z"/><path class="cls-1" d="m66.82,4.52c-.01,6.74-.02,13.47-.03,20.21,0,1.61,2.5,1.61,2.5,0,.01-6.74.02-13.47.03-20.21,0-1.61-2.5-1.61-2.5,0h0Z"/><path class="cls-1" d="m72.21,4.38c.39,6.53.78,13.07,1.17,19.6l2.46-.33c-.38-1.18-.66-2.75.23-3.8.83-.96,2.37-1.02,3.37-.32.5.35.88.86,1.12,1.42.16.39.38,1.2.23,1.37s-.86.19-1.08.23c-.46.08-.91.15-1.37.21-.95.11-1.91.15-2.87.14-1.61,0-1.61,2.5,0,2.5,1.52,0,3.03-.12,4.53-.37,1.16-.2,2.49-.39,3.08-1.56.99-1.98-.53-4.74-2.11-5.91-1.84-1.36-4.49-1.32-6.26.15-1.94,1.61-1.99,4.37-1.27,6.6.41,1.28,2.54,1.14,2.46-.33-.39-6.53-.78-13.07-1.17-19.6-.1-1.6-2.6-1.61-2.5,0h0Z"/><path class="cls-1" d="m91.31,15.04c-1.45.17-2.79.66-3.89,1.64s-1.7,2.33-1.77,3.76.61,3.57,2.37,3.63c1.49.05,2.88-1.11,3.96-1.99.63-.52,1.22-1.11,1.41-1.94.21-.9-.04-1.73-.07-2.61l-2.46.33c.74,2.86,1.8,5.62,3.15,8.25.31.6,1.15.78,1.71.45.61-.36.76-1.11.45-1.71-1.25-2.44-2.22-5-2.9-7.65-.35-1.35-2.5-1.09-2.46.33.02.63.23,1.36.17,1.88-.02.22-.13.34-.24.44-.21.2-.44.38-.66.57-.45.36-.91.7-1.45.97-.07.03-.14.07-.26.11-.07.03-.14.05-.22.07-.16.04-.18.04-.09.02l.23.08c.17.19.19.19.07.01-.1-.19-.02.02-.1-.2-.29-.86-.12-1.85.45-2.56.37-.45.68-.67,1.18-.93.23-.12.33-.16.62-.25.16-.05.32-.09.48-.13.05-.01.43-.07.29-.06.67-.08,1.25-.52,1.25-1.25,0-.61-.58-1.33-1.25-1.25h0Z"/><path class="cls-1" d="m100.03,15.81c-1.85.64-3.33,2.07-3.56,4.08-.21,1.78.69,3.65,2.49,4.18,1.66.49,3.46-.23,4.35-1.71s.77-3.62-.2-5.1l-2.16,1.26c2.02,2.92,4.73,6.71,3.62,10.48-.46,1.58-2.3,2.34-3.77,2.69-1.67.4-3.5.26-5.08-.43-.62-.27-1.34-.18-1.71.45-.31.53-.17,1.44.45,1.71,2.15.95,4.45,1.24,6.76.74,2.03-.44,4.41-1.56,5.37-3.51,1.05-2.13.79-4.78.07-6.96-.78-2.35-2.16-4.41-3.56-6.43-.91-1.31-3.05-.1-2.16,1.26.67,1.02.68,3.53-1.15,3.18-.76-.14-.96-.98-.85-1.65.15-.9.92-1.55,1.74-1.83,1.51-.52.86-2.94-.66-2.41h0Z"/><path class="cls-1" d="m110.06,20.04c1.04.4,2.29.16,3.18-.48s1.49-1.62,1.79-2.68c.17-.6.3-1.29-.05-1.85-.38-.63-1.15-.76-1.8-.95-.99-.29-2-.6-3.04-.61-1.11-.02-2.23.36-3,1.18s-1.14,1.88-1.26,2.99.02,2.33.21,3.44c.18,1.05.7,2.01,1.53,2.69,2.07,1.68,4.69,1.4,7.13.87.66-.15,1.05-.91.87-1.54-.19-.68-.88-1.02-1.54-.87-.81.18-1.58.34-2.39.36-.36,0-.71,0-1.04-.07-.17-.03-.33-.08-.49-.13-.08-.03-.16-.05-.24-.08.1.05.09.04-.05-.03-.15-.08-.3-.16-.44-.25-.07-.05-.14-.09-.21-.14.09.07.08.05-.04-.04-.09-.09-.18-.17-.26-.26-.1-.11-.11-.13-.03-.04-.05-.07-.09-.14-.13-.21-.3-.52-.33-1.29-.39-2.02-.06-.79-.08-1.54.17-2.3.05-.14.06-.16.02-.06.04-.08.08-.15.12-.23.02-.03.21-.33.09-.17.23-.31.32-.39.66-.51-.12.04.29-.06.35-.07-.16.03.3,0,.35,0,.39,0,.52.03.93.13.38.09.75.2,1.12.31.21.06.42.12.63.19.11.03.21.06.32.09.33.12.23.02-.28-.28l-.17-.63c0,.07,0,.17.01.04-.01.09-.04.18-.06.27-.04.15-.12.44-.15.51-.1.26-.29.56-.47.75-.06.06-.13.13-.2.18.1-.08-.04.02-.07.03-.08.04-.15.09-.23.12.12-.05-.03,0-.07.01-.08.02-.17.05-.25.06.19-.03-.08-.01-.12-.01-.2,0,.14.04-.05,0-.11-.03-.21-.06-.31-.1-.63-.24-1.37.27-1.54.87-.19.7.24,1.3.87,1.54h0Z"/><path class="cls-1" d="m15.46,18.4c.33-.89-.05-1.91-.72-2.53-.76-.69-1.76-.9-2.75-.67-.89.2-1.63.77-2.32,1.32-.15.12-.29.24-.44.35-.11.09.12-.09-.06.05-.08.05-.15.11-.23.16-.16.1-.32.18-.48.28-.11.07.16-.04-.06.02-.11.03-.21.06-.32.09-1.01.23-1.26,1.81-.3,2.28,2.41,1.19,4.96,1.93,7.63,2.24.65.08,1.27-.63,1.25-1.25-.05-1.18-.09-2.35-.14-3.53s.08-2.62-1.12-3.28c-1.31-.73-2.45.41-3.24,1.32s-1.55,1.79-2.33,2.68c-.34.39-.46.88-.26,1.37s.63.72,1.14.77c.63.06,1.26.13,1.9.19.32.03.63.06.95.1.16.02.32.05.47.05.18.02.09,0-.26-.09.05.03.1.07.15.1.78.55,1.97.36,2.25-.65.25-.89-.39-1.74-1.29-1.81-.45-.03-.84.27-1.08.62-.06.09-.13.25-.15.36-.09.64.16,1.37.87,1.54.59.13,1.44-.18,1.54-.87l-.11.23-1.08.62h.02c-.29-.12-.59-.24-.88-.36-.13-.12-.21-.27-.22-.45-.04-.27-.06-.34-.07-.21l.17-.63-.02.03.45-.45-.03.02.63-.17.42.13-.08-.05s-.12-.1-.18-.13c-.21-.13-.43-.2-.67-.23-.44-.06-.88-.09-1.32-.14-.79-.08-1.58-.16-2.37-.24l.88,2.13c.63-.72,1.25-1.44,1.88-2.17.31-.36.61-.72.93-1.07.06-.07.12-.12.18-.19.14-.16-.07.01.04-.04.14-.07.16-.05.02-.03-.14.02-.3,0-.42-.07l-.26-.26c.05.1.06.1.01,0-.03-.2.01.09,0,.12-.02-.16-.03-.19-.02-.1,0,.03,0,.06,0,.09,0,.11,0,.22.01.32.02.48.04.97.06,1.45.04.99.08,1.98.12,2.98l1.25-1.25c-.08,0-.17-.02-.25-.03.12.02.11.02-.04,0-.13-.02-.25-.04-.37-.06-.29-.05-.58-.1-.87-.16-.58-.12-1.15-.26-1.72-.43s-1.12-.36-1.67-.57c-.12-.05-.24-.09-.35-.14-.14-.06-.16-.06-.05-.02-.08-.03-.15-.07-.23-.1-.27-.12-.54-.25-.8-.38l-.3,2.28c.65-.15,1.24-.48,1.77-.87.3-.22.58-.46.87-.69.06-.05.12-.1.18-.14-.1.07-.09.07.03-.02.13-.09.26-.18.39-.27s.27-.16.41-.22c-.23.1.2-.05.24-.06.15-.03.15-.03,0,0,.08,0,.15,0,.23,0-.17-.03-.19-.03-.05,0,.13.04.12.03-.03-.03.09.04.36.27.15.07.05.04.09.09.14.13-.09-.13-.1-.14-.03-.03.06.12.06.11-.01-.05.03.14.04.11,0-.07,0,.14,0,.12.03-.07-.01.06-.03.12-.06.18-.23.62.25,1.4.87,1.54.71.16,1.3-.21,1.54-.87h0Z"/></g></svg>