<?xml version="1.0" encoding="UTF-8"?><svg id="Layer_8" xmlns="http://www.w3.org/2000/svg" width="661.87" height="327.64" xmlns:xlink="http://www.w3.org/1999/xlink" viewBox="0 0 661.87 327.64"><defs><style>.cls-1,.cls-2{fill:#fff;}.cls-3{fill:#ed1d24;}.cls-4{fill:#323234;}.cls-5{fill:#241f21;}.cls-6{fill:#131b21;}.cls-7{fill:#139ccf;}.cls-8{fill:#0b161e;}.cls-9{fill:#111011;}.cls-10{fill:#2c2d2e;}.cls-11{fill:#4d4b4e;}.cls-12{fill:#4d4b4d;}.cls-13{fill:#4e4c4f;}.cls-2{opacity:.56;stroke:#fff;}.cls-2,.cls-14,.cls-15,.cls-16,.cls-17,.cls-18{stroke-miterlimit:10;}.cls-14{stroke-width:5px;}.cls-14,.cls-15,.cls-16,.cls-17,.cls-18{stroke:#231f20;}.cls-14,.cls-16{fill:none;}.cls-15{fill:#575a5b;}.cls-16{stroke-width:8px;}.cls-17{fill:#5fccf4;}.cls-17,.cls-18{stroke-width:3px;}.cls-18{fill:#f0515c;}</style></defs><path class="cls-15" d="m578.07,327.74H95.16V29.97c0-7.32,14.01-2.22,18.18-7.02s-.54-15.74,4.83-19.51h425.12c9.92,2.9,9.92,12.38,9.92,22.64,0,12.14,29.1,6.68,24.87,17.45v284.21Z"/><rect class="cls-5" x="116.22" y="32.77" width="433.18" height="276.03" rx="12" ry="12"/><rect class="cls-4" x="135.05" y="44.46" width="395.53" height="242.26" rx="30" ry="30"/><path class="cls-18" d="m573.15,3.68c20.64-.24,42.13-2.58,53.9,6.08,29,21.32,32.56,67.68,33.08,74.44.68,8.93-.18,9.96-1.23,30.38-2.4,46.86-.86,99.78,0,129.13.38,12.96.67,18.79-1.23,27.34-7.19,32.53-33.29,47.39-35.53,48.61-17.91,9.8-20.04,8.08-44.07,8.08-6.37,0-10.04-21.28-10.98-40.17-.86-17.39,2.18-25.26,2.37-43.87.58-54.62-2.66-108.08-.92-145.25,2.54-54.04-11.69-94.59,4.59-94.78Z"/><path class="cls-17" d="m92.28,3.34c-19.98.54-43.85-2.61-56.1,6.15C6,31.08,2.29,78.02,1.75,84.86c-.71,9.04.18,10.09,1.28,30.76,2.5,47.44.89,101.02,0,130.73-.39,13.12-.69,19.03,1.28,27.68,7.48,32.93,34.45,48.71,36.98,49.22,22.46,4.48,41.39,4.48,53.88,4.48,6.5,0,4.64-18.05,3.42-36.98-1.14-17.59-2.27-25.57-2.47-44.41-.6-55.3,2.77-109.42.95-147.06-2.64-54.71,11.86-96.41-4.78-95.96Z"/><path class="cls-7" d="m92.49,22.84c-21.51-6.59-42.49-2.27-54.36,5.34C8.88,46.92,5.29,87.66,4.77,93.61c-.69,7.85.18,8.76,1.24,26.7,2.42,41.18.86,87.7,0,113.49-.38,11.39-.67,16.52,1.24,24.03,7.25,28.59,33.57,41.65,35.83,42.73,18.06,8.61,43.12,5.28,51.89-1.34,4.87-3.67,4.81-10.44,3.63-26.87-1.1-15.27-2.19-22.2-2.39-38.55-.59-48,2.68-94.99.92-127.66-2.56-47.49,10.33-78.71-4.63-83.3Z"/><path class="cls-3" d="m574.56,22.84c15.96-3.24,41.27-2.27,52.81,5.34,28.42,18.74,31.9,59.48,32.41,65.42.67,7.85-.17,8.76-1.2,26.7-2.36,41.18-.84,87.7,0,113.49.37,11.39.65,16.52-1.2,24.03-7.04,28.59-32.54,41.92-34.81,42.73-14.53,5.17-35.04,1.83-50.41-1.34-5.57-1.15-4.68-10.44-3.53-26.87,1.07-15.27,2.13-22.2,2.33-38.55.57-48-2.61-94.99-.9-127.66,2.49-47.49-10.33-80.29,4.5-83.3Z"/><ellipse class="cls-9" cx="51.41" cy="100.72" rx="27.98" ry="29.15"/><ellipse class="cls-10" cx="51.41" cy="100.72" rx="21.54" ry="24.18"/><ellipse class="cls-9" cx="51.41" cy="100.72" rx="18.41" ry="21.22"/><ellipse class="cls-13" cx="51.41" cy="100.72" rx="16.01" ry="17.53"/><path class="cls-2" d="m40.04,92.33c1.07-2.76,4.5-6.29,8.38-7.15,5.01-1.11,12.4,1.48,13.36,3.42"/><ellipse class="cls-6" cx="49.61" cy="167.25" rx="11.67" ry="13.45"/><ellipse class="cls-12" cx="49.61" cy="167.25" rx="9.01" ry="10.39"/><ellipse class="cls-8" cx="50.31" cy="167.25" rx="3.94" ry="4.54"/><ellipse class="cls-6" cx="70.81" cy="190.96" rx="11.67" ry="13.45"/><ellipse class="cls-12" cx="70.81" cy="190.96" rx="9.01" ry="10.39"/><ellipse class="cls-8" cx="71.52" cy="190.96" rx="3.94" ry="4.54"/><ellipse class="cls-6" cx="25.01" cy="190.96" rx="11.67" ry="13.45"/><ellipse class="cls-12" cx="25.01" cy="190.96" rx="9.01" ry="10.39"/><ellipse class="cls-8" cx="25.72" cy="190.96" rx="3.94" ry="4.54"/><ellipse class="cls-6" cx="48.36" cy="214.8" rx="11.67" ry="13.45"/><ellipse class="cls-12" cx="48.36" cy="214.8" rx="9.01" ry="10.39"/><ellipse class="cls-8" cx="49.06" cy="214.8" rx="3.94" ry="4.54"/><rect class="cls-6" x="53.71" y="244.8" width="27.75" height="28.07" rx="12" ry="12"/><rect class="cls-11" x="59.72" y="249.78" width="15.72" height="18.12"/><line class="cls-16" x1="71.61" y1="51.46" x2="91.05" y2="51.46"/><ellipse class="cls-9" cx="612.79" cy="165.48" rx="27.98" ry="29.15"/><ellipse class="cls-10" cx="612.79" cy="165.48" rx="21.54" ry="24.18"/><ellipse class="cls-9" cx="612.79" cy="165.48" rx="18.41" ry="21.22"/><ellipse class="cls-13" cx="612.79" cy="165.48" rx="16.01" ry="17.53"/><path class="cls-2" d="m601.42,157.09c1.07-2.76,4.5-6.29,8.38-7.15,5.01-1.11,12.4,1.48,13.36,3.42"/><ellipse class="cls-6" cx="613.98" cy="47.8" rx="11.67" ry="13.45"/><ellipse class="cls-12" cx="613.98" cy="47.8" rx="9.01" ry="10.39"/><ellipse class="cls-1" cx="614.69" cy="47.8" rx="3.94" ry="4.54"/><ellipse class="cls-6" cx="635.19" cy="71.5" rx="11.67" ry="13.45"/><ellipse class="cls-12" cx="635.19" cy="71.5" rx="9.01" ry="10.39"/><ellipse class="cls-1" cx="635.89" cy="71.5" rx="3.94" ry="4.54"/><ellipse class="cls-6" cx="589.38" cy="71.5" rx="11.67" ry="13.45"/><ellipse class="cls-12" cx="589.38" cy="71.5" rx="9.01" ry="10.39"/><ellipse class="cls-1" cx="590.09" cy="71.5" rx="3.94" ry="4.54"/><ellipse class="cls-6" cx="612.73" cy="95.35" rx="11.67" ry="13.45"/><ellipse class="cls-12" cx="612.73" cy="95.35" rx="9.01" ry="10.39"/><ellipse class="cls-1" cx="613.44" cy="95.35" rx="3.94" ry="4.54"/><line class="cls-14" x1="575.09" y1="34.35" x2="594.53" y2="34.35"/><line class="cls-14" x1="584.81" y1="45.55" x2="584.81" y2="23.14"/><ellipse class="cls-6" cx="603.13" cy="256.76" rx="13.69" ry="15.78"/><ellipse class="cls-11" cx="603.13" cy="256.76" rx="8.94" ry="10.31"/><g id="U3qZEi.tif"><image id="Layer_0" width="2050" height="1448" transform="translate(144.09 54.87) scale(.18 .16)" xlink:href="Nintendospil1.png"/></g></svg>